<svg width="237" height="189" viewBox="0 0 237 189" fill="none" xmlns="http://www.w3.org/2000/svg">
<g clip-path="url(#clip0)">
<path opacity="0.1" d="M78.7927 188.894C90.3344 188.894 99.6908 187.202 99.6908 185.115C99.6908 183.028 90.3344 181.336 78.7927 181.336C67.2509 181.336 57.8945 183.028 57.8945 185.115C57.8945 187.202 67.2509 188.894 78.7927 188.894Z" fill="#00BFA6"/>
<path opacity="0.1" d="M192.392 189C206.794 189 218.47 187.308 218.47 185.221C218.47 183.134 206.794 181.442 192.392 181.442C177.99 181.442 166.314 183.134 166.314 185.221C166.314 187.308 177.99 189 192.392 189Z" fill="#00BFA6"/>
<path opacity="0.1" d="M2.96826 81.6616H24.735V115.063H4.56178C4.50817 115.406 4.45669 115.751 4.40093 116.096H24.735V143.033C24.6986 143.021 24.6664 143.007 24.6321 142.992C24.0573 142.736 23.4868 142.466 22.9163 142.176L22.5517 141.99C21.9798 141.686 21.4078 141.364 20.8359 141.024C20.6365 140.906 20.437 140.783 20.2397 140.657C17.0646 138.655 14.1802 136.118 11.6865 133.134C11.6136 133.054 11.545 132.969 11.4721 132.892C11.1246 132.467 10.7836 132.037 10.4533 131.598L10.0887 131.115C9.69839 130.577 9.32092 130.024 8.95417 129.463C8.90055 129.381 8.84908 129.299 8.79331 129.222C7.30176 126.894 6.0633 124.373 5.1044 121.713C5.07437 121.633 5.04864 121.546 5.02075 121.471C4.72621 120.618 4.46527 119.757 4.23793 118.887C4.13927 118.523 4.04491 118.163 3.96341 117.784C3.93338 117.673 3.90764 117.564 3.88405 117.456C2.66585 112.102 2.52216 106.542 2.52216 101.019C2.52216 100.375 2.52216 99.7276 2.52216 99.0878C2.52216 96.8543 2.54575 94.6063 2.58006 92.3607C2.58006 91.7788 2.60151 91.1993 2.61223 90.6149C2.64226 89.1324 2.68515 87.6498 2.74092 86.1673C2.75379 85.7544 2.77094 85.3439 2.79025 84.9334C2.79025 84.6968 2.80097 84.4601 2.82242 84.2235C2.87389 83.3639 2.91678 82.5116 2.96826 81.6616Z" fill="#00BFA6"/>
<path opacity="0.1" d="M24.7351 44.472H12.7954C14.7363 41.0519 16.8569 37.7654 19.1459 34.6301C20.9196 32.1769 22.7919 29.7864 24.7351 27.4829V44.472Z" fill="#00BFA6"/>
<path opacity="0.1" d="M24.735 45.5054V80.6281H3.03693C3.03693 80.5267 3.05194 80.4229 3.05837 80.3215C3.07768 80.0438 3.09698 79.7661 3.11842 79.4908C3.14202 79.1673 3.16775 78.8413 3.19563 78.525C3.22352 78.2087 3.25354 77.8224 3.28571 77.4723C3.31788 77.1221 3.34791 76.7672 3.38437 76.4171C3.42083 76.067 3.453 75.7168 3.49161 75.3691C3.53021 75.0214 3.56453 74.6689 3.60528 74.3212C3.63745 74.0315 3.67176 73.7441 3.70608 73.4544C3.75541 73.0463 3.80688 72.6358 3.86264 72.2302C3.86264 72.1698 3.87766 72.107 3.88623 72.0491C4.27769 69.0795 4.81106 66.1359 5.48405 63.231C6.1885 60.1837 7.08806 57.1979 8.17567 54.297C9.3316 51.2622 10.685 48.3278 12.2249 45.5175L24.735 45.5054Z" fill="#00BFA6"/>
<path opacity="0.1" d="M29.9317 81.6589V115.062H76.4227V81.6589H29.9317ZM29.9317 116.093V144.779C30.1976 144.842 30.4614 144.902 30.7231 144.953C31.0791 145.03 31.433 145.1 31.7954 145.16C31.864 145.172 31.9348 145.185 32.0099 145.192C32.1514 145.218 32.2973 145.24 32.4388 145.262C32.797 145.317 33.153 145.363 33.5112 145.399C33.6806 145.419 33.8522 145.436 34.0238 145.45L34.4377 145.486C34.6629 145.506 34.886 145.52 35.1069 145.527C35.2441 145.527 35.3814 145.542 35.5229 145.547C35.6302 145.547 35.7374 145.547 35.8489 145.547C35.9605 145.547 36.1192 145.547 36.2543 145.547C36.4387 145.547 36.6232 145.547 36.8055 145.547H37.0521C37.2366 145.547 37.421 145.547 37.6033 145.527H37.6162C37.7427 145.527 37.8714 145.527 38.0001 145.508C38.0358 145.51 38.0716 145.51 38.1073 145.508C38.2146 145.508 38.3218 145.508 38.4247 145.491H38.4998L39.2183 145.428C39.4542 145.404 39.6923 145.373 39.9325 145.344L40.4215 145.279C42.4109 144.965 44.3782 144.494 46.3087 143.869C50.6453 142.507 54.8876 140.602 59.2221 139.206C64.8262 137.407 71.018 136.523 76.4334 138.723V116.093H29.9317ZM76.4227 44.4718V0.00217877C71.3327 -0.0599062 66.2566 0.610338 61.3175 1.99663C49.5451 5.32636 38.9824 12.5484 29.9317 21.7722V44.4694H32.2651V45.5004H29.9317V80.6279H76.4227V45.5028H41.8456V44.4718H76.4227ZM136.138 29.4506C133.226 29.3347 130.33 28.2964 127.712 26.6931C122.704 23.6266 118.704 18.8916 114.234 14.8954C104.947 6.57229 93.4303 1.54993 81.6151 0.304003V44.4718H147.983L148.149 44.2762L136.138 29.4506ZM142.184 28.2433L148.595 36.1631V26.1667C146.448 26.4661 144.567 27.1784 142.193 28.2336L142.184 28.2433ZM148.595 151.902V116.093H134.935C134.898 115.941 134.862 115.787 134.819 115.632C134.86 115.787 134.894 115.941 134.933 116.093H81.6237V141.99C82.1298 142.413 82.6295 142.857 83.125 143.308C83.659 143.791 84.1866 144.301 84.7163 144.801L85.2504 145.298C85.5056 145.539 85.763 145.781 86.0225 146.008C86.5372 146.478 87.0569 146.942 87.5817 147.399C87.8412 147.64 88.1071 147.857 88.3709 148.084C92.559 151.689 96.9768 154.943 101.589 157.818C102.623 158.462 103.666 159.09 104.718 159.703C105.419 160.107 106.125 160.508 106.833 160.896C107.896 161.481 108.969 162.044 110.05 162.586C120.015 167.623 130.554 171.079 141.363 172.856C143.763 173.255 146.173 173.569 148.592 173.797V151.899H148.807L148.595 151.902ZM81.6237 45.5028V80.6279H148.603V45.5028H81.6237ZM81.6237 81.6589V115.062H148.603V81.6589H81.6237ZM153.802 26.1233V37.2739L161.984 27.1664C159.273 26.6738 156.546 26.3221 153.802 26.1112V26.1233ZM153.802 81.671V115.062H218.948V81.6589L153.802 81.671ZM218.71 154.553L218.939 116.093H153.802V174.181C157.998 174.38 162.201 174.323 166.392 174.012H166.464C168.466 173.871 170.459 173.665 172.442 173.394H172.487C183.067 172.008 193.412 168.9 203.199 164.168L218.71 154.553ZM231.509 87.1594C231.265 86.5099 231.01 85.8652 230.75 85.2277C230.266 84.0204 229.753 82.8469 229.225 81.6734H224.142V115.062H236.993C236.987 105.607 234.862 95.9485 231.516 87.1473L231.509 87.1594ZM224.142 116.106V149.185C227.763 145.279 230.821 140.809 233.024 135.7C235.672 129.548 236.884 122.886 236.983 116.101L224.142 116.106ZM224.142 71.9378V80.6303H228.749C227.356 77.638 225.82 74.7322 224.149 71.9257L224.142 71.9378ZM179.961 32.6765C179.622 32.5316 179.283 32.3843 178.942 32.2418C175.346 30.7466 171.671 29.5031 167.938 28.5185L155.417 43.9888L155.177 44.2762L155.338 44.4742H199.901C193.694 39.6644 187.003 35.7002 179.968 32.6644L179.961 32.6765ZM201.207 45.5149H154.716L153.802 46.4566V80.6279H161.81H161.823H218.956V64.0759C213.788 57.0387 207.823 50.7945 201.213 45.5028L201.207 45.5149Z" fill="#00BFA6"/>
<path opacity="0.1" d="M24.735 63.2213V80.6281H3.03693C3.03693 80.5267 3.05194 80.4229 3.05837 80.3215C3.07768 80.0438 3.09698 79.7661 3.11842 79.4909C3.14202 79.1673 3.16775 78.8413 3.19563 78.525C3.22352 78.2087 3.25354 77.8224 3.28571 77.4723C3.31788 77.1221 3.34791 76.7672 3.38437 76.4171C3.42083 76.067 3.453 75.7168 3.49161 75.3691C3.53021 75.0214 3.56453 74.6689 3.60528 74.3212C3.63745 74.0315 3.67176 73.7441 3.70608 73.4544C3.75541 73.0463 3.80688 72.6358 3.86264 72.2302C3.86264 72.1698 3.87766 72.107 3.88623 72.0491C4.27769 69.0795 4.81106 66.1359 5.48405 63.231L24.735 63.2213Z" fill="#00BFA6"/>
<path opacity="0.1" d="M2.96826 81.6616H24.735V115.063H4.56178C4.50817 115.406 4.45669 115.751 4.40093 116.096H24.735V143.033C24.6986 143.021 24.6664 143.007 24.6321 142.992C24.0573 142.736 23.4868 142.466 22.9163 142.176L22.5517 141.99C21.9798 141.686 21.4078 141.364 20.8359 141.024C20.6365 140.906 20.437 140.783 20.2397 140.657C17.0646 138.655 14.1802 136.118 11.6865 133.134C11.6136 133.054 11.545 132.969 11.4721 132.892C11.1246 132.467 10.7836 132.037 10.4533 131.598L10.0887 131.115C9.69839 130.577 9.32092 130.024 8.95417 129.463C8.90055 129.381 8.84908 129.299 8.79331 129.222C7.30176 126.894 6.0633 124.373 5.1044 121.713C5.07437 121.633 5.04864 121.546 5.02075 121.471C4.72621 120.618 4.46527 119.757 4.23793 118.887C4.13927 118.523 4.04491 118.163 3.96341 117.784C3.93338 117.673 3.90764 117.564 3.88405 117.456C2.66585 112.102 2.52216 106.542 2.52216 101.019C2.52216 100.375 2.52216 99.7276 2.52216 99.0878C2.52216 96.8543 2.54575 94.6063 2.58006 92.3607C2.58006 91.7788 2.60151 91.1993 2.61223 90.6149C2.64226 89.1324 2.68515 87.6498 2.74092 86.1673C2.75379 85.7544 2.77094 85.3439 2.79025 84.9334C2.79025 84.6968 2.80097 84.4601 2.82242 84.2235C2.87389 83.3639 2.91678 82.5116 2.96826 81.6616Z" fill="#00BFA6"/>
<path opacity="0.1" d="M46.298 50.5326V80.6281H29.9317V50.5326H32.2651V40.343H41.8434V50.5326H46.298Z" fill="#00BFA6"/>
<path opacity="0.1" d="M46.298 81.6592H29.9338V115.06H46.298V81.6592Z" fill="#00BFA6"/>
<path opacity="0.1" d="M29.9317 116.096H46.298V143.864C44.3674 144.489 42.4001 144.959 40.4108 145.272L39.9218 145.339C39.6815 145.371 39.4435 145.397 39.2076 145.424C38.9716 145.45 38.7271 145.47 38.4891 145.487H38.414C38.3111 145.487 38.1995 145.501 38.0987 145.504H37.9894C37.8607 145.504 37.732 145.518 37.6033 145.523C37.421 145.535 37.2387 145.537 37.0521 145.54C36.9728 145.54 36.8977 145.54 36.8183 145.54C36.6339 145.54 36.4516 145.54 36.2672 145.54H35.8618C35.7524 145.54 35.6473 145.54 35.5337 145.54L35.1197 145.523C34.9053 145.523 34.6736 145.496 34.4506 145.479L34.0388 145.446L33.5262 145.392C33.1659 145.356 32.8077 145.31 32.4538 145.255L32.0249 145.187L31.8104 145.153C31.4523 145.091 31.0984 145.023 30.7381 144.946C30.4743 144.895 30.2126 144.832 29.9467 144.772L29.9317 116.096Z" fill="#00BFA6"/>
<path opacity="0.1" d="M148.603 46.9784H135.109V80.6258H148.603V46.9784Z" fill="#00BFA6"/>
<path opacity="0.1" d="M148.605 81.6592V115.063H81.6237V100.655H117.301V109.154H135.109V81.6592H148.605Z" fill="#00BFA6"/>
<path opacity="0.1" d="M148.818 151.909H148.603V173.822C146.187 173.592 143.778 173.279 141.376 172.883C130.561 171.1 120.019 167.637 110.05 162.592C107.172 161.133 104.352 159.541 101.591 157.816C96.9791 154.939 92.5606 151.686 88.371 148.082C87.3186 147.174 86.2799 146.246 85.2547 145.296C84.5448 144.637 83.8392 143.961 83.125 143.304C82.6296 142.852 82.1299 142.408 81.6237 141.983V116.096H134.931C134.894 115.942 134.858 115.787 134.819 115.635C134.86 115.787 134.899 115.942 134.935 116.096H148.603V151.895C148.676 151.897 148.747 151.905 148.818 151.909Z" fill="#00BFA6"/>
<path opacity="0.1" d="M183.798 44.472H175.005V41.3958H178.947V32.2324C179.288 32.3725 179.629 32.5165 179.968 32.6646V41.3958H183.798V44.472Z" fill="#00BFA6"/>
<path opacity="0.1" d="M204.984 80.6281H161.815C161.815 80.6281 161.815 80.6281 161.83 80.6402L161.81 80.6281H153.802V46.9807H156.071V71.8511H166.441V57.1221H175.007V45.5054H183.8V57.1317H192.366V71.8607H204.984V80.6281Z" fill="#00BFA6"/>
<path opacity="0.1" d="M153.802 81.6592V115.063H204.984V81.6592H153.802ZM218.877 154.382L218.948 127.942H204.984V116.111H153.802V174.182C157.998 174.38 162.201 174.324 166.392 174.013H166.464C168.466 173.871 170.459 173.665 172.442 173.394H172.487C183.067 172.008 193.412 168.9 203.199 164.168" fill="#00BFA6"/>
<path opacity="0.1" d="M225.052 116.096H236.991C236.886 122.879 235.677 129.541 233.03 135.693C230.828 140.805 227.767 145.274 224.151 149.179V127.93H225.052V116.096Z" fill="#00BFA6"/>
<path opacity="0.1" d="M236.998 115.063H225.052V87.1476H231.516C234.862 95.9488 236.987 105.607 236.998 115.063Z" fill="#00BFA6"/>
<path opacity="0.1" d="M148.605 56.3325H141.376V66.8819H148.605V56.3325Z" fill="#00BFA6"/>
<path opacity="0.1" d="M148.605 78.1991H141.376V80.6282H148.605V78.1991Z" fill="#00BFA6"/>
<path opacity="0.1" d="M148.605 81.6592H141.376V88.746H148.605V81.6592Z" fill="#00BFA6"/>
<path opacity="0.1" d="M148.605 100.066H141.376V110.615H148.605V100.066Z" fill="#00BFA6"/>
<path opacity="0.1" d="M148.605 121.932H141.376V132.482H148.605V121.932Z" fill="#00BFA6"/>
<path opacity="0.1" d="M148.603 151.895C148.676 151.895 148.747 151.895 148.818 151.909H148.603V154.36H141.376V143.799H148.603V151.895Z" fill="#00BFA6"/>
<path opacity="0.1" d="M148.603 165.661V173.81C146.187 173.58 143.778 173.266 141.376 172.87V165.661H148.603Z" fill="#00BFA6"/>
<path opacity="0.1" d="M112.608 114.288H81.6237V115.063H112.608V114.288Z" fill="#00BFA6"/>
<path opacity="0.1" d="M112.608 116.094H81.6237V119.064H112.608V116.094Z" fill="#00BFA6"/>
<path opacity="0.1" d="M112.608 128.799H81.6237V133.575H112.608V128.799Z" fill="#00BFA6"/>
<path opacity="0.1" d="M112.606 143.311V148.087H88.371C87.3186 147.182 86.2792 146.254 85.2526 145.301C84.5427 144.641 83.8392 143.965 83.1228 143.311H112.606Z" fill="#00BFA6"/>
<path opacity="0.1" d="M112.606 157.82V162.592H110.048C107.172 161.132 104.353 159.539 101.591 157.813L112.606 157.82Z" fill="#00BFA6"/>
<path opacity="0.1" d="M172.493 84.8972H166.394V91.7643H172.493V84.8972Z" fill="#00BFA6"/>
<path opacity="0.1" d="M40.4258 52.9014H34.3262V59.7685H40.4258V52.9014Z" fill="#00BFA6"/>
<path opacity="0.1" d="M40.4258 68.8522H34.3262V75.7193H40.4258V68.8522Z" fill="#00BFA6"/>
<path opacity="0.1" d="M40.4258 84.803H34.3262V91.6701H40.4258V84.803Z" fill="#00BFA6"/>
<path opacity="0.1" d="M40.4258 100.751H34.3262V107.618H40.4258V100.751Z" fill="#00BFA6"/>
<path opacity="0.1" d="M40.4258 116.702H34.3262V123.569H40.4258V116.702Z" fill="#00BFA6"/>
<path opacity="0.1" d="M40.4258 132.653H34.3262V139.52H40.4258V132.653Z" fill="#00BFA6"/>
<path opacity="0.1" d="M195.778 84.8972H189.679V91.7643H195.778V84.8972Z" fill="#00BFA6"/>
<path opacity="0.1" d="M172.493 101.836H166.394V108.703H172.493V101.836Z" fill="#00BFA6"/>
<path opacity="0.1" d="M195.778 101.836H189.679V108.703H195.778V101.836Z" fill="#00BFA6"/>
<path opacity="0.1" d="M172.493 118.771H166.394V125.639H172.493V118.771Z" fill="#00BFA6"/>
<path opacity="0.1" d="M195.778 118.771H189.679V125.639H195.778V118.771Z" fill="#00BFA6"/>
<path opacity="0.1" d="M172.493 135.71H166.394V142.577H172.493V135.71Z" fill="#00BFA6"/>
<path opacity="0.1" d="M195.778 135.71H189.679V142.577H195.778V135.71Z" fill="#00BFA6"/>
<path opacity="0.1" d="M172.493 152.648H166.394V159.515H172.493V152.648Z" fill="#00BFA6"/>
<path opacity="0.1" d="M195.778 152.648H189.679V159.515H195.778V152.648Z" fill="#00BFA6"/>
<path opacity="0.1" d="M166.394 174.013V169.584H172.491V173.382L166.394 174.013Z" fill="#00BFA6"/>
<path opacity="0.1" d="M3.86052 72.0443V75.9728H24.7351V72.0443H3.86052ZM5.9409 75.7265H4.23799V72.2857H5.95376L5.9409 75.7265ZM8.01913 75.7265H6.30335V72.2857H8.01913V75.7265ZM10.0931 75.7265H8.3773V72.2857H10.0931V75.7265ZM12.1713 75.7265H10.4577V72.2857H12.1734L12.1713 75.7265ZM14.2474 75.7265H12.5316V72.2857H14.2474V75.7265ZM16.3256 75.7265H14.6098V72.2857H16.3256V75.7265ZM18.4039 75.7265H16.6881V72.2857H18.4039V75.7265ZM20.4799 75.7265H18.7642V72.2857H20.4799V75.7265ZM22.556 75.7265H20.8403V72.2857H22.556V75.7265ZM24.6321 75.7265H22.9163V72.2857H24.6321V75.7265Z" fill="#00BFA6"/>
<path opacity="0.1" d="M3.86052 83.475V87.4035H24.7351V83.475H3.86052ZM5.9409 87.1548H4.23799V83.7237H5.95376L5.9409 87.1548ZM8.01913 87.1548H6.30335V83.7237H8.01913V87.1548ZM10.0931 87.1548H8.3773V83.7237H10.0931V87.1548ZM12.1713 87.1548H10.4577V83.7237H12.1734L12.1713 87.1548ZM14.2474 87.1548H12.5316V83.7237H14.2474V87.1548ZM16.3256 87.1548H14.6098V83.7237H16.3256V87.1548ZM18.4039 87.1548H16.6881V83.7237H18.4039V87.1548ZM20.4799 87.1548H18.7642V83.7237H20.4799V87.1548ZM22.556 87.1548H20.8403V83.7237H22.556V87.1548ZM24.6321 87.1548H22.9163V83.7237H24.6321V87.1548Z" fill="#00BFA6"/>
<path opacity="0.1" d="M3.86052 94.9104V98.8462H24.7351V94.9104H3.86052ZM5.9409 98.5903H4.23799V95.1567H5.95376L5.9409 98.5903ZM8.01913 98.5903H6.30335V95.1567H8.01913V98.5903ZM10.0931 98.5903H8.3773V95.1567H10.0931V98.5903ZM12.1713 98.5903H10.4577V95.1567H12.1734L12.1713 98.5903ZM14.2474 98.5903H12.5316V95.1567H14.2474V98.5903ZM16.3256 98.5903H14.6098V95.1567H16.3256V98.5903ZM18.4039 98.5903H16.6881V95.1567H18.4039V98.5903ZM20.4799 98.5903H18.7642V95.1567H20.4799V98.5903ZM22.556 98.5903H20.8403V95.1567H22.556V98.5903ZM24.6321 98.5903H22.9163V95.1567H24.6321V98.5903Z" fill="#00BFA6"/>
<path opacity="0.1" d="M3.86052 106.346V110.27H24.7351V106.346H3.86052ZM5.9409 110.026H4.23799V106.59H5.95376L5.9409 110.026ZM8.01913 110.026H6.30335V106.59H8.01913V110.026ZM10.0931 110.026H8.3773V106.59H10.0931V110.026ZM12.1713 110.026H10.4577V106.59H12.1734L12.1713 110.026ZM14.2474 110.026H12.5316V106.59H14.2474V110.026ZM16.3256 110.026H14.6098V106.59H16.3256V110.026ZM18.4039 110.026H16.6881V106.59H18.4039V110.026ZM20.4799 110.026H18.7642V106.59H20.4799V110.026ZM22.556 110.026H20.8403V106.59H22.556V110.026ZM24.6321 110.026H22.9163V106.59H24.6321V110.026Z" fill="#00BFA6"/>
<path opacity="0.1" d="M3.95053 117.779C4.03418 118.149 4.12854 118.518 4.2272 118.883V118.025H5.94297V121.459H5.02503C5.05292 121.539 5.0808 121.626 5.10868 121.7H24.735V117.779H3.95053ZM8.0255 121.459H6.30972V118.025H8.0255V121.459ZM10.0994 121.459H8.38366V118.025H10.0994V121.459ZM12.1777 121.459H10.4576V118.025H12.1734L12.1777 121.459ZM14.2538 121.459H12.538V118.025H14.2538V121.459ZM16.332 121.459H14.6162V118.025H16.332V121.459ZM18.4102 121.459H16.6944V118.025H18.4102V121.459ZM20.4863 121.459H18.7705V118.025H20.4863V121.459ZM22.5624 121.459H20.8466V118.025H22.5624V121.459ZM24.6385 121.459H22.9227V118.025H24.6385V121.459Z" fill="#00BFA6"/>
<path opacity="0.1" d="M8.79759 129.215C8.85121 129.292 8.90268 129.379 8.95845 129.456H10.093V131.105C10.2153 131.269 10.3354 131.434 10.4597 131.588V129.446H12.1755V132.892H11.4806C11.5493 132.972 11.6158 133.056 11.6951 133.133H24.7414V129.215H8.79759ZM14.2473 132.892H12.5315V129.461H14.2473V132.892ZM16.3256 132.892H14.6098V129.461H16.3256V132.892ZM18.4038 132.892H16.688V129.461H18.4038V132.892ZM20.4799 132.892H18.7641V129.461H20.4799V132.892ZM22.556 132.892H20.8402V129.461H22.556V132.892ZM24.632 132.892H22.9163V129.461H24.632V132.892Z" fill="#00BFA6"/>
<path opacity="0.1" d="M20.2483 140.648C20.4434 140.773 20.6429 140.889 20.8445 141.015V140.894H22.5603V141.981L22.9249 142.171V140.894H24.6406V142.983C24.6736 143.001 24.708 143.016 24.7436 143.026V140.648H20.2483Z" fill="#00BFA6"/>
<path opacity="0.1" d="M161.815 80.6282H161.828H161.815ZM148.603 151.893H148.818H148.603ZM134.819 115.633C134.86 115.787 134.894 115.942 134.933 116.094C134.899 115.942 134.862 115.787 134.819 115.633ZM161.815 80.6209H161.828H161.815ZM32.2737 44.4648V45.4958H41.8542V44.4648H32.2737ZM148.603 151.893H148.818H148.603ZM134.819 115.633C134.86 115.787 134.894 115.942 134.933 116.094C134.899 115.942 134.862 115.787 134.819 115.633ZM161.815 80.6209H161.828H161.815ZM148.603 151.885H148.818H148.603ZM134.819 115.633C134.86 115.787 134.894 115.942 134.933 116.094C134.899 115.942 134.862 115.787 134.819 115.633Z" fill="#00BFA6"/>
<path d="M99.0002 91.6749C99.0002 91.6749 98.1552 91.5421 98.1552 90.1562C98.1552 88.7702 97.5504 86.1817 97.5504 86.1817C97.5504 86.1697 97.0271 81.6737 96.3043 80.959C95.5816 80.2442 94.6529 76.0477 94.6529 76.0477C94.6529 76.0477 94.4942 73.7707 94.1703 73.2805C93.8465 72.7904 93.409 71.5903 92.7634 69.8784C92.1178 68.1664 89.4262 66.9809 89.4262 66.9809C89.4262 66.9809 84.5598 63.8033 83.1808 62.7674C83.0554 62.6823 82.9383 62.5828 82.8312 62.4704C82.591 62.1155 81.5444 62.1082 81.5444 62.1082C81.435 61.3307 81.3299 60.4373 81.2956 59.6284C81.2956 59.5415 81.2956 59.4546 81.2849 59.3677C82.8226 58.3443 83.9809 56.7308 84.547 54.8234C84.5727 54.7316 84.5942 54.635 84.6178 54.5433C84.7099 54.5091 84.7947 54.4537 84.8667 54.3805C84.9387 54.3073 84.9964 54.218 85.036 54.1183C85.1604 53.8068 85.1625 53.4422 85.3169 53.1525C85.4971 52.8096 85.8402 52.6261 86.1105 52.3677C86.7925 51.7158 86.9684 50.6172 86.9362 49.6175C86.9147 48.8086 86.7989 47.9925 86.844 47.1884L86.8568 46.9856C86.8697 46.8649 86.8847 46.7442 86.904 46.6283C87.0091 46.0294 87.2386 45.4644 87.3673 44.8704C87.496 44.2764 87.5088 43.6076 87.2086 43.0957C86.7689 42.3448 85.8531 42.1951 85.0488 42.1178C84.1373 42.0309 83.3223 42.1443 82.739 41.292C82.466 40.8465 82.1588 40.4288 81.821 40.0437C81.7009 39.9181 80.5342 39.1164 80.5342 39.0633C79.3955 38.4696 78.1047 38.3581 76.8989 38.7494C76.2941 38.9474 75.7236 39.271 75.1102 39.4328C73.7869 39.7853 72.2642 39.4038 71.1403 40.2561C70.5141 40.7391 70.1388 41.5069 69.787 42.2554C69.5011 42.8719 69.2108 43.4877 68.9163 44.1026C68.4423 45.1143 67.9597 46.1429 67.7603 47.2633C67.7183 47.5071 67.6925 47.7541 67.6831 48.0022V48.0142C67.6831 48.1036 67.6831 48.1929 67.6831 48.2822V48.3957C67.6831 48.4802 67.6831 48.5623 67.6959 48.6372C67.7088 48.712 67.7066 48.7362 67.7131 48.7869C67.7195 48.8376 67.7302 48.9511 67.7431 49.0284C67.756 49.1056 67.7817 49.2408 67.8074 49.3471C67.8182 49.393 67.8332 49.4364 67.846 49.4799C67.8675 49.562 67.8932 49.6417 67.9211 49.7213C67.9361 49.7624 67.9511 49.8059 67.9683 49.8469C68.0005 49.9314 68.0391 50.0135 68.0777 50.0884C68.0948 50.1222 68.1077 50.1536 68.1249 50.1849C68.1847 50.2972 68.2506 50.4053 68.3222 50.5085C68.7811 51.1532 69.4567 51.5637 69.9565 52.1673C69.9565 52.1915 69.9565 52.2156 69.9565 52.2374C69.9565 52.305 69.9565 52.3702 69.9565 52.4378C69.983 53.784 70.3012 55.1026 70.8836 56.2788C71.466 57.455 72.2948 58.4532 73.2979 59.1866C73.2979 59.2783 73.3087 59.3725 73.3129 59.4642C73.3548 60.181 73.3469 60.9003 73.2893 61.6156C73.202 61.4998 73.0927 61.4076 72.9694 61.3457C72.8462 61.2839 72.7122 61.254 72.5773 61.2583C72.4852 61.2532 72.3928 61.2622 72.3028 61.2848L72.2835 61.2679V61.2897C71.8116 61.4201 71.2304 61.973 70.6749 63.5449C70.6749 63.5449 68.9849 65.6891 67.6981 65.5997C66.4112 65.5104 63.1534 67.8308 63.1534 67.8308C63.1534 67.8308 59.9749 70.1537 59.2929 72.52C58.9117 73.8618 58.4547 75.1748 57.9246 76.4509L53.9955 85.566L53.2705 92.7977C53.2705 92.7977 53.6716 96.014 53.5922 96.5041C53.5129 96.9943 55.2415 101.415 55.2415 101.415C55.2415 101.415 60.9529 112.713 63.2864 113.293L63.4537 113.16C63.5535 113.219 63.6594 113.263 63.7689 113.293L64.2494 112.911C64.2782 113.336 64.266 113.764 64.2129 114.186C63.8912 115.302 64.333 122.582 64.8949 124.009C65.4568 125.436 65.2574 144.146 65.2574 144.146L65.178 145.798C65.178 145.798 65.178 145.851 65.1973 145.943L65.178 146.334L65.2359 146.368C65.2961 146.892 65.2765 147.423 65.178 147.94C64.9764 148.664 64.8949 150.712 64.8949 150.712C64.8949 150.712 63.2885 162.273 64.0499 164.596C64.8113 166.919 65.459 169.464 65.459 169.464C65.459 169.464 66.2632 172.361 65.4976 172.856C64.7319 173.351 62.555 174.182 63.0033 175.389C63.4108 176.504 64.9571 179.494 65.1866 179.931L65.1673 180.16L64.852 184.007C64.9031 184.514 65.0254 185.01 65.2145 185.475C65.5598 186.313 66.2311 187.182 67.5072 187.088C67.7217 187.071 67.9704 187.042 68.2107 187.006C70.5463 186.653 73.4223 185.48 73.4223 185.48C73.273 185.373 73.1361 185.245 73.0148 185.1C72.9 184.975 72.8091 184.825 72.7475 184.659C72.6859 184.493 72.655 184.315 72.6567 184.135C72.691 183.434 71.5264 180.097 71.2369 179.276C71.1918 179.158 71.1682 179.091 71.1682 179.091C71.1682 179.091 73.8234 175.966 73.3816 173.196C73.3816 173.196 70.4433 171.265 71.4106 170.205C72.3778 169.145 74.1065 166.1 74.1065 166.1C74.1065 166.1 74.1858 154.715 74.1065 153.015C74.0237 151.835 74.0734 150.649 74.2545 149.483C74.2866 149.306 74.3253 149.135 74.366 148.966C75.7037 149.191 77.0541 149.306 78.4067 149.311C78.8999 149.311 79.4018 149.311 79.908 149.277C79.908 149.438 79.9144 149.612 79.9273 149.799C80.0388 152.619 80.2468 157.564 80.4163 159.402C80.6565 162.036 81.984 169.135 81.984 169.135C81.984 169.135 79.4511 170.965 82.4259 175.476C82.4259 175.476 82.4259 177.111 82.2285 177.347C82.0179 178.121 81.8482 178.908 81.7202 179.704C81.5958 180.554 81.5444 181.413 81.746 181.86C82.2285 182.927 85.1239 182.84 85.1239 182.84L85.1947 182.826C85.7413 182.762 86.2937 182.822 86.8198 183C87.3459 183.179 87.8353 183.473 88.2595 183.867C89.3597 184.861 93.5355 184.424 95.796 184.108C96.6818 183.982 97.2737 183.867 97.2737 183.867C97.3024 183.754 97.3126 183.636 97.3038 183.519C97.2802 182.893 96.8448 181.522 93.8937 180.298C93.8937 180.298 91.1184 178.197 91.157 176.367H91.0991H90.7774C91.0112 176.352 91.1613 176.367 91.1613 176.367C91.1613 176.367 90.0739 171.9 90.5179 171.538C90.9618 171.175 89.6321 166.226 89.6321 166.226C89.6321 166.226 88.8707 157.919 88.83 157.337C88.8317 156.838 88.8989 156.342 89.0294 155.865L88.83 151.311C88.83 151.311 88.7914 149.797 88.83 149.304C88.8235 148.877 88.7927 148.45 88.7378 148.027C88.7185 147.858 88.6992 147.681 88.6777 147.508C89.7179 147.211 90.3935 146.935 90.3935 146.935L90.2734 131.084C91.157 129.152 91.32 124.914 91.3157 121.908C91.3157 119.976 91.2385 118.547 91.2385 118.547L92.446 116.328C92.446 116.328 92.7248 113.672 92.283 113.09C92.0878 112.827 92.1757 112.554 92.3366 112.329C92.4201 112.255 92.5083 112.187 92.6004 112.127C92.6004 112.127 92.5875 112.105 92.5725 112.073C92.6568 111.994 92.7465 111.922 92.8406 111.859C92.8406 111.859 92.4117 111.11 92.7956 110.794C93.1559 111.069 93.4776 111.277 93.7221 111.446C93.7049 111.622 93.6878 111.723 93.6878 111.723L93.7907 111.482C94.0266 111.632 94.1703 111.723 94.1703 111.723C94.1703 111.723 96.062 107.481 96.0212 106.855C95.9805 106.23 97.3081 103.596 97.3081 103.596C97.3081 103.596 97.4689 102.212 98.1938 101.633C98.9187 101.053 98.7557 96.8542 98.7557 96.8542C98.7557 96.8542 98.9574 94.6666 99.4399 93.7732C99.9225 92.8798 99.0002 91.6749 99.0002 91.6749ZM62.806 89.8133L62.8424 90.825C62.6279 90.4362 62.4735 90.1562 62.4735 90.1562L62.806 89.8133Z" fill="url(#paint0_linear)"/>
<path d="M94.2732 109.891L93.81 112.112C93.81 112.112 90.0996 109.98 89.4305 107.271C88.7613 104.562 90.55 103.533 90.55 103.533L94.0073 105.182L94.2732 109.891Z" fill="white"/>
<path opacity="0.1" d="M94.2732 109.891L93.81 112.112C93.81 112.112 90.0996 109.98 89.4305 107.271C88.7613 104.562 90.55 103.533 90.55 103.533L94.0073 105.182L94.2732 109.891Z" fill="black"/>
<path d="M73.4502 185.494C73.4502 185.494 70.0186 186.914 67.6594 187.092C66.4069 187.187 65.7485 186.322 65.4096 185.489C65.2245 185.026 65.1051 184.533 65.0557 184.028L65.3624 180.201L65.5254 178.163L70.5376 176.698L71.2475 179.141L71.314 179.327C71.5993 180.143 72.7424 183.463 72.7081 184.156C72.7067 184.334 72.7371 184.51 72.7976 184.674C72.858 184.837 72.9472 184.986 73.0598 185.11C73.1749 185.256 73.3061 185.385 73.4502 185.494Z" fill="white"/>
<path d="M96.8898 183.548C96.8984 183.664 96.8882 183.781 96.8598 183.893C96.8598 183.893 89.5206 185.272 88.0192 183.893C87.596 183.49 87.1026 183.192 86.5707 183.016C86.0388 182.841 85.4803 182.792 84.9308 182.874C84.9308 182.874 82.0912 182.961 81.6173 181.908C81.4199 181.466 81.4714 180.609 81.5937 179.764C81.7184 178.972 81.8845 178.189 82.0912 177.42L82.2049 177.318L82.8805 176.707L90.7902 176.444H90.8503C90.8117 178.265 93.5355 180.353 93.5355 180.353C96.4287 181.561 96.8555 182.925 96.8898 183.548Z" fill="white"/>
<path opacity="0.1" d="M96.8898 183.548C96.8973 183.664 96.8864 183.781 96.8576 183.893C96.8576 183.893 89.5206 185.272 88.0193 183.893C87.5962 183.491 87.1032 183.192 86.5717 183.017C86.0403 182.841 85.4821 182.793 84.933 182.874C84.933 182.874 82.0913 182.961 81.6194 181.908C81.4221 181.464 81.4714 180.609 81.5937 179.764C82.6875 179.887 84.414 180.194 85.0917 180.926C86.1169 182.039 87.8541 183.149 88.92 183.236C89.7543 183.297 94.7451 183.475 96.8898 183.548Z" fill="black"/>
<path opacity="0.1" d="M73.4502 185.494C73.4502 185.494 70.0186 186.914 67.6594 187.093C66.4069 187.187 65.7485 186.322 65.4118 185.487C66.2847 185.818 67.4964 186.165 68.1334 185.847C68.8884 185.47 71.565 185.226 73.0663 185.122C73.1805 185.263 73.3094 185.388 73.4502 185.494Z" fill="black"/>
<path d="M78.5417 71.0784C75.7107 69.8398 72.069 65.747 72.9783 63.8347C73.1803 63.3521 73.3003 62.8312 73.3322 62.299C73.3907 61.5764 73.3993 60.8499 73.358 60.1259C73.2942 58.9401 73.1674 57.7596 72.9783 56.5909C72.9783 56.5909 81.8167 56.8154 81.302 58.2811C81.1519 58.7109 81.1283 59.457 81.169 60.2925C81.2098 61.1279 81.317 62.072 81.4285 62.8712C81.583 63.9675 81.7374 64.8029 81.7374 64.8029C81.7374 64.8029 81.1969 65.6553 80.8795 65.7011C80.5621 65.747 82.6039 72.8435 78.5417 71.0784Z" fill="#CF6F80"/>
<path opacity="0.1" d="M71.3076 179.327L71.2411 179.409C68.5988 175.811 65.4032 180.295 65.4032 180.295L65.356 180.201L65.519 178.163L70.5312 176.698L71.2411 179.141L71.3076 179.327Z" fill="black"/>
<path opacity="0.1" d="M90.8525 176.698C90.8525 176.698 88.9222 176.652 87.8927 177.676C86.8633 178.699 81.8875 177.898 82.102 177.676C82.1655 177.565 82.2038 177.439 82.2135 177.309L82.8891 176.698L90.7988 176.434C90.8289 176.596 90.8525 176.698 90.8525 176.698Z" fill="black"/>
<path d="M74.5954 148.444C74.4517 148.845 74.3425 149.259 74.2694 149.683C74.0906 150.844 74.0409 152.025 74.1214 153.199C74.2008 154.889 74.1214 166.216 74.1214 166.216C74.1214 166.216 72.425 169.237 71.4792 170.301C70.5333 171.366 73.4094 173.279 73.4094 173.279C73.8383 176.031 71.2389 179.141 71.2389 179.141C68.5967 175.543 65.401 180.03 65.401 180.03C65.401 180.03 63.6638 176.649 63.2306 175.442C62.7973 174.235 64.927 173.399 65.6756 172.909C66.4241 172.419 65.6391 169.529 65.6391 169.529C65.6391 169.529 65.0064 166.996 64.2558 164.685C63.5051 162.374 65.0836 150.871 65.0836 150.871C65.0836 150.871 65.1651 148.828 65.3603 148.116C65.4588 147.602 65.4783 147.073 65.4182 146.551C65.4053 146.375 65.3903 146.228 65.3796 146.129C65.3689 146.03 65.3603 145.984 65.3603 145.984L65.3903 145.926L66.4627 143.676C66.4627 143.676 75.1102 147.027 74.5954 148.444Z" fill="#00BFA6"/>
<path d="M90.8524 176.432C90.8524 176.432 88.9222 176.386 87.8927 177.398C86.8632 178.41 81.8875 177.62 82.102 177.398C82.3165 177.176 82.2993 175.531 82.2993 175.531C79.3803 171.045 81.8704 169.224 81.8704 169.224C81.8704 169.224 80.5664 162.162 80.3305 159.542C80.1653 157.712 79.9616 152.793 79.8522 149.985C79.805 148.778 79.7771 147.947 79.7771 147.947L82.162 147.406L82.4687 147.336L88.2208 146.037C88.2208 146.037 88.3796 147.244 88.4868 148.232C88.5403 148.654 88.5703 149.079 88.5769 149.504C88.5383 149.987 88.5769 151.499 88.5769 151.499L88.772 156.031C88.6445 156.507 88.5788 157 88.5769 157.497C88.6155 158.074 89.364 166.337 89.364 166.337C89.364 166.337 90.6658 171.267 90.2219 171.622C89.7779 171.977 90.8524 176.432 90.8524 176.432Z" fill="#00BFA6"/>
<path opacity="0.1" d="M81.302 58.2811C81.1518 58.7109 81.1282 59.457 81.169 60.2924C79.9851 61.0951 78.6242 61.5054 77.2425 61.4764C75.8608 61.4473 74.5144 60.9801 73.3579 60.1283C73.2943 58.9417 73.1675 57.7604 72.9783 56.5909C72.9783 56.5909 81.8167 56.8106 81.302 58.2811Z" fill="black"/>
<path d="M84.7186 52.9448C84.7203 53.8149 84.5986 54.6798 84.3582 55.5067C83.8209 57.3596 82.7191 58.9389 81.2474 59.9657C79.7758 60.9924 78.0292 61.4003 76.3163 61.1175C74.6033 60.8346 73.0343 59.879 71.8866 58.4197C70.7389 56.9605 70.0864 55.0914 70.0444 53.1428C70.0444 53.0752 70.0444 53.0124 70.0444 52.9448C70.0277 51.848 70.2052 50.7585 70.5665 49.7397C70.9278 48.7209 71.4657 47.7934 72.1488 47.0111C72.8318 46.2288 73.6464 45.6075 74.545 45.1834C75.4436 44.7593 76.4082 44.5408 77.3825 44.5408C78.3569 44.5408 79.3215 44.7593 80.2201 45.1834C81.1187 45.6075 81.9333 46.2288 82.6163 47.0111C83.2994 47.7934 83.8373 48.7209 84.1986 49.7397C84.5598 50.7585 84.7374 51.848 84.7207 52.9448H84.7186Z" fill="#CF6F80"/>
<path opacity="0.1" d="M78.5417 71.0784C75.7107 69.8397 72.069 65.747 72.9783 63.8346C73.1803 63.352 73.3003 62.8312 73.3322 62.299L77.2077 65.8846L79.6055 68.0988L81.4285 62.8736C81.583 63.9698 81.7374 64.8053 81.7374 64.8053C81.7374 64.8053 81.1969 65.6576 80.8795 65.7035C80.5621 65.7494 82.6039 72.8435 78.5417 71.0784Z" fill="black"/>
<path d="M88.564 86.9254L85.3276 148.135L81.1068 148.447L70.1773 112.955L71.9703 70.8176L72.3478 61.915L77.2077 66.4086L79.6076 68.6228L81.4843 63.2455L84.9737 66.6694L88.564 86.9254Z" fill="#00BFA6"/>
<path opacity="0.1" d="M74.5954 148.444C74.4517 148.845 74.3425 149.259 74.2694 149.683C71.1982 149.149 68.2153 148.1 65.4203 146.571L65.3624 146.537L65.3817 146.148L65.3925 145.945L66.4648 143.695C66.4648 143.695 75.1102 147.027 74.5954 148.444Z" fill="black"/>
<path opacity="0.1" d="M82.2114 149.693C81.4262 149.843 80.6344 149.945 79.8393 149.997C79.7921 148.79 79.7643 147.959 79.7643 147.959L82.1492 147.418L82.2114 149.693Z" fill="black"/>
<path opacity="0.1" d="M88.4739 148.244C86.949 148.691 84.5941 149.193 82.4859 148.879L82.4559 147.348L88.208 146.049C88.208 146.049 88.3667 147.244 88.4739 148.244Z" fill="black"/>
<path opacity="0.1" d="M82.4473 149.159C73.6539 150.849 65.6005 146.003 65.6005 146.003L65.6777 144.361C65.6777 144.361 65.8772 125.747 65.3239 124.32C64.7705 122.893 64.3394 115.657 64.6526 114.546C64.9657 113.435 63.5094 96.7794 63.5094 96.7794L63.2735 90.0185L54.6389 86.0803L58.4994 77.0207C59.0208 75.7506 59.4692 74.444 59.842 73.1091C60.5133 70.7573 63.6295 68.4465 63.6295 68.4465C63.6295 68.4465 66.8252 66.1382 68.0884 66.2251C69.3516 66.312 71.0074 64.1823 71.0074 64.1823C72.2298 60.6739 73.3365 62.2627 73.3365 62.2627C73.3365 62.4293 73.3365 62.2627 73.2765 62.7819C72.8475 66.6332 80.2125 78.8027 80.3176 79.0176L81.0189 98.2523L81.7288 122.594L82.4473 149.159Z" fill="black"/>
<path d="M82.2114 149.159C73.418 150.849 65.3625 146.003 65.3625 146.003L65.4418 144.361C65.4418 144.361 65.6413 125.747 65.0858 124.32C64.5303 122.893 64.1014 115.657 64.4166 114.546C64.7319 113.435 63.2735 96.7794 63.2735 96.7794L63.0354 90.0185L54.3965 86.0658L58.257 77.0063C58.7773 75.7355 59.2257 74.4291 59.5996 73.0946C60.2688 70.7428 63.3872 68.4321 63.3872 68.4321C63.3872 68.4321 66.5828 66.1237 67.8439 66.2106C69.105 66.2975 70.7629 64.1679 70.7629 64.1679C71.9875 60.6595 73.3365 62.2483 73.3365 62.2483C73.3365 62.4149 73.2078 62.4897 73.2765 62.7674C74.2201 66.5028 79.9766 78.7883 80.0817 79.0032L80.7916 98.2378L81.5015 122.579L82.2114 149.159Z" fill="white"/>
<path opacity="0.1" d="M79.8415 79.5512C78.8956 79.107 73.8856 72.6672 73.8856 72.6672V71.2016C73.7033 70.7187 72.6202 71.0132 71.7408 71.3513L72.1183 62.4487L72.5473 62.8495C73.4866 66.5825 79.7321 79.3363 79.8415 79.5512Z" fill="black"/>
<path d="M80.0795 79.0176C79.1315 78.5733 74.1215 72.1336 74.1215 72.1336V70.6679C73.9392 70.185 72.8561 70.4796 71.9767 70.8177L72.3564 61.915L72.7853 62.3159C73.7268 66.0488 79.9744 78.8051 80.0795 79.0176Z" fill="white"/>
<path opacity="0.1" d="M65.6005 111.134C65.7185 111.134 71.7151 110.424 71.7151 110.424C71.7151 110.424 75.3461 118.462 75.1081 120.418C74.87 122.374 74.4389 124.105 72.9784 123.799C71.5178 123.492 65.118 124.04 65.118 124.04L65.6005 111.134Z" fill="black"/>
<path d="M65.3625 110.601C65.4804 110.601 71.4771 109.891 71.4771 109.891C71.4771 109.891 75.1059 117.931 74.87 119.885C74.6341 121.838 74.1987 123.572 72.7403 123.265C71.2819 122.958 64.8799 123.507 64.8799 123.507L65.3625 110.601Z" fill="white"/>
<path d="M69.8814 106.827C69.8814 106.827 75.3847 110.156 75.5027 111.173C75.6206 112.189 72.7017 110.729 72.0711 110.552C71.6561 110.44 71.2336 110.365 70.8079 110.33L66.6021 110.458L69.8814 106.827Z" fill="#CF6F80"/>
<path opacity="0.1" d="M78.3059 79.9665C78.6257 79.9665 78.8849 79.6746 78.8849 79.3145C78.8849 78.9545 78.6257 78.6626 78.3059 78.6626C77.9861 78.6626 77.7268 78.9545 77.7268 79.3145C77.7268 79.6746 77.9861 79.9665 78.3059 79.9665Z" fill="black"/>
<path d="M78.3059 79.701C78.6257 79.701 78.8849 79.4091 78.8849 79.049C78.8849 78.689 78.6257 78.3971 78.3059 78.3971C77.9861 78.3971 77.7268 78.689 77.7268 79.049C77.7268 79.4091 77.9861 79.701 78.3059 79.701Z" fill="#3F3D56"/>
<path opacity="0.1" d="M79.3717 108.188C79.6916 108.188 79.9508 107.897 79.9508 107.536C79.9508 107.176 79.6916 106.885 79.3717 106.885C79.0519 106.885 78.7927 107.176 78.7927 107.536C78.7927 107.897 79.0519 108.188 79.3717 108.188Z" fill="black"/>
<path d="M79.3717 107.92C79.6916 107.92 79.9508 107.628 79.9508 107.268C79.9508 106.908 79.6916 106.616 79.3717 106.616C79.0519 106.616 78.7927 106.908 78.7927 107.268C78.7927 107.628 79.0519 107.92 79.3717 107.92Z" fill="#3F3D56"/>
<path opacity="0.1" d="M78.8828 94.0774C79.2026 94.0774 79.4618 93.7856 79.4618 93.4255C79.4618 93.0654 79.2026 92.7736 78.8828 92.7736C78.563 92.7736 78.3037 93.0654 78.3037 93.4255C78.3037 93.7856 78.563 94.0774 78.8828 94.0774Z" fill="black"/>
<path d="M78.8828 93.8118C79.2026 93.8118 79.4618 93.5199 79.4618 93.1599C79.4618 92.7998 79.2026 92.5079 78.8828 92.5079C78.563 92.5079 78.3037 92.7998 78.3037 93.1599C78.3037 93.5199 78.563 93.8118 78.8828 93.8118Z" fill="#3F3D56"/>
<path d="M92.2315 110.195C92.2315 110.195 92.6261 110.861 92.2315 111.173C91.8369 111.484 92.2701 112.238 92.2701 112.238C92.2701 112.238 91.2857 112.887 91.7189 113.471C92.1522 114.056 91.8776 116.695 91.8776 116.695L90.6937 118.902C90.6937 118.902 90.7645 120.324 90.7688 122.246C90.7688 125.245 90.6122 129.461 89.7458 131.383L89.8659 147.153C89.8659 147.153 85.7201 148.857 82.25 148.338L81.7352 123.033C81.7352 123.033 82.4859 108.683 82.7626 105.931C82.9245 104.502 82.9904 103.061 82.9599 101.621C82.9599 101.621 82.8419 97.313 82.4451 95.3137C82.4451 95.3137 82.0162 86.6526 81.9733 84.2549C81.954 83.108 82.0076 79.7613 82.0677 76.5789C82.1342 73.0995 82.2092 69.818 82.2092 69.818L81.4264 62.8447C81.4264 62.8447 82.2092 62.7553 82.4451 63.1103C82.5508 63.2214 82.6657 63.3209 82.7883 63.4073C84.1395 64.4359 88.9136 67.599 88.9136 67.599C88.9136 67.599 91.5559 68.7822 92.1886 70.4772C92.8213 72.1723 93.261 73.3747 93.5677 73.8576C93.8744 74.3406 94.0416 76.6103 94.0416 76.6103C94.0416 76.6103 94.951 80.7875 95.6609 81.495C96.3708 82.2025 96.8898 86.7033 96.8898 86.7033L90.6165 92.2568C90.6165 92.2568 90.0653 101.495 89.9474 101.852C89.8294 102.21 92.2315 110.195 92.2315 110.195Z" fill="white"/>
<path d="M92.4696 110.195C92.4696 110.195 92.862 110.861 92.4696 111.173C92.0771 111.484 92.506 112.238 92.506 112.238C92.506 112.238 91.528 112.894 91.957 113.479C92.3859 114.063 92.1157 116.702 92.1157 116.702L90.9318 118.909C90.9318 118.909 91.0026 120.331 91.009 122.253C91.009 125.252 90.8524 129.468 89.986 131.39L90.1039 147.16C90.1039 147.16 85.9517 148.865 82.4859 148.345L81.9733 123.041C81.9733 123.041 82.7239 108.691 83.0006 105.938C83.1627 104.509 83.228 103.068 83.1958 101.628C83.1958 101.628 83.0778 97.3203 82.6832 95.321C82.6832 95.321 82.2543 86.6598 82.2092 84.2621C82.1899 83.1152 82.2457 79.7686 82.3036 76.5861C82.3701 73.1067 82.4451 69.8253 82.4451 69.8253L81.4114 62.7578C81.4114 62.7578 82.4451 62.7577 82.6832 63.1175C82.7879 63.23 82.9029 63.3295 83.0264 63.4145C84.3775 64.4431 89.1538 67.6063 89.1538 67.6063C89.1538 67.6063 91.794 68.7894 92.4267 70.4845C93.0594 72.1795 93.499 73.382 93.8079 73.8649C94.1167 74.3478 94.2797 76.6175 94.2797 76.6175C94.2797 76.6175 95.1891 80.7948 95.899 81.5023C96.6089 82.2097 97.1214 86.7009 97.1214 86.7009L90.8481 92.2544C90.8481 92.2544 90.297 101.493 90.1769 101.85C90.0567 102.207 92.4696 110.195 92.4696 110.195Z" fill="white"/>
<path opacity="0.1" d="M84.9566 71.8752L85.5228 73.7344L82.5416 77.1149C82.6081 73.6379 82.6832 70.354 82.6832 70.354L81.6494 63.2865C81.6494 63.2865 82.6832 63.2865 82.9213 63.6463C83.0256 63.7584 83.1407 63.8572 83.2644 63.9409L85.7995 72.1746L84.9566 71.8752Z" fill="black"/>
<path d="M84.7185 71.3416L85.2869 73.2009L82.3057 76.5813C82.3722 73.1019 82.4473 69.8204 82.4473 69.8204L81.4114 62.7529C81.4114 62.7529 82.4473 62.7529 82.6832 63.1127C82.7884 63.2245 82.9034 63.324 83.0264 63.4097L85.5636 71.641L84.7185 71.3416Z" fill="white"/>
<path opacity="0.1" d="M84.7186 52.9448C84.7203 53.8149 84.5986 54.6798 84.3582 55.5067C84.3177 55.5138 84.2763 55.5117 84.2366 55.5005C84.1968 55.4893 84.1594 55.4693 84.1266 55.4415C84.0708 53.2684 83.1207 51.228 81.9519 49.4919C81.6237 48.9678 81.2258 48.5036 80.7723 48.1156C80.3137 47.7279 79.7433 47.5463 79.1723 47.6061C78.5289 47.7051 77.9605 48.1977 77.3107 48.2605C76.4528 48.3402 75.685 47.6713 74.8335 47.6375C74.4874 47.6412 74.1459 47.728 73.8319 47.8921C73.518 48.0561 73.2387 48.2937 73.0127 48.5889C72.5654 49.1846 72.233 49.8787 72.0368 50.6268C71.6996 51.7613 71.516 52.9464 71.4921 54.1425C71.4813 54.8185 71.4234 55.6661 70.8658 55.9124C70.9078 55.4151 70.8576 54.9135 70.7184 54.4393C70.5792 53.965 70.3541 53.5285 70.0573 53.1573L70.0444 53.1428C70.0444 53.0752 70.0444 53.0124 70.0444 52.9448C70.0277 51.848 70.2052 50.7585 70.5665 49.7397C70.9278 48.7209 71.4657 47.7934 72.1488 47.0111C72.8318 46.2288 73.6464 45.6075 74.545 45.1834C75.4436 44.7593 76.4082 44.5408 77.3825 44.5408C78.3569 44.5408 79.3215 44.7593 80.2201 45.1834C81.1187 45.6075 81.9333 46.2288 82.6163 47.0111C83.2994 47.7934 83.8373 48.7209 84.1986 49.7397C84.5598 50.7585 84.7374 51.848 84.7207 52.9448H84.7186Z" fill="black"/>
<path d="M80.4206 39.8263C79.3061 39.2361 78.0385 39.1245 76.8561 39.5124C76.262 39.7104 75.7022 40.0315 75.0995 40.1933C73.8127 40.5434 72.3114 40.1643 71.2069 41.0119C70.5935 41.4948 70.2246 42.2578 69.8814 42.9991L69.0235 44.839C68.556 45.8459 68.0842 46.8697 67.889 47.978C67.6938 49.0863 67.8118 50.3274 68.4359 51.2184C68.8906 51.8679 69.5619 52.2759 70.0552 52.8868C70.3507 53.2584 70.5748 53.6947 70.7136 54.1684C70.8524 54.642 70.9027 55.1429 70.8616 55.6395C71.4213 55.398 71.475 54.5481 71.4878 53.872C71.5117 52.676 71.6954 51.4908 72.0326 50.3563C72.2283 49.608 72.5607 48.9139 73.0084 48.3184C73.2346 48.0235 73.5139 47.7861 73.8279 47.622C74.1418 47.458 74.4832 47.3711 74.8293 47.3671C75.6872 47.4009 76.4571 48.0673 77.3064 47.9876C77.9499 47.9273 78.5204 47.4323 79.1681 47.3357C79.7392 47.2749 80.3098 47.4566 80.768 47.8452C81.2214 48.2325 81.6187 48.6968 81.9455 49.2215C83.1165 50.9576 84.0666 52.9931 84.1224 55.171C84.3647 55.3715 84.7143 55.1107 84.8344 54.8016C84.9545 54.4925 84.9588 54.1304 85.1111 53.8358C85.2869 53.4953 85.6237 53.3142 85.8875 53.0583C86.5566 52.4087 86.7239 51.3149 86.6982 50.3225C86.6724 49.3301 86.5008 48.3233 86.6681 47.3478C86.7689 46.7489 86.9963 46.1888 87.1207 45.5972C87.2451 45.0056 87.2601 44.3416 86.9663 43.8321C86.5373 43.0836 85.6344 42.9363 84.8473 42.8663C83.9529 42.7794 83.1529 42.8904 82.5824 42.0429C82.3147 41.6006 82.0133 41.1854 81.6817 40.8018C81.568 40.6762 80.4206 39.8794 80.4206 39.8263Z" fill="#512E4E"/>
<path opacity="0.1" d="M57.1096 90.7453L54.8683 86.0803L54.1584 93.2782C54.1584 93.2782 54.5531 96.4751 54.4737 96.9653C54.3944 97.4555 56.0908 101.85 56.0908 101.85C56.0908 101.85 61.695 113.088 63.9834 113.667L71.7151 107.447L69.6648 104.516C69.6648 104.516 68.9549 104.204 68.7768 104.516C68.7768 104.516 64.97 97.1416 64.5753 96.608C64.1807 96.0743 64.2579 95.0095 64.2579 95.0095C64.2579 95.0095 63.666 94.2996 63.8633 93.6332C64.0606 92.9667 62.7201 90.656 62.7201 90.656L63.9426 89.369L57.1096 90.7453Z" fill="black"/>
<path d="M54.9863 85.5491L54.3943 86.0803L53.6844 93.2782C53.6844 93.2782 54.0791 96.4751 53.9997 96.9653C53.9204 97.4554 55.619 101.85 55.619 101.85C55.619 101.85 61.221 113.088 63.5094 113.667L71.2433 107.447L69.1908 104.516C69.1908 104.516 68.4809 104.204 68.3029 104.516C68.3029 104.516 64.496 97.1415 64.1013 96.6079C63.7067 96.0743 63.7861 95.0095 63.7861 95.0095C63.7861 95.0095 63.1941 94.2996 63.3914 93.6331C63.5888 92.9667 62.2462 90.6559 62.2462 90.6559L63.4687 89.369L54.9863 85.5491Z" fill="white"/>
<path opacity="0.1" d="M91.7189 113.747C92.1479 114.333 91.8776 116.968 91.8776 116.968L90.6937 119.175C90.6937 119.175 90.7645 120.599 90.7688 122.519L88.7785 123.219C88.5986 123.282 88.4079 123.296 88.2223 123.26C88.0367 123.223 87.8615 123.137 87.7115 123.009C87.5614 122.88 87.4408 122.714 87.3596 122.522C87.2785 122.331 87.2392 122.12 87.245 121.908L87.5882 109.446L92.2315 111.446C91.8369 111.755 92.2701 112.513 92.2701 112.513C92.2701 112.513 91.2857 113.16 91.7189 113.747Z" fill="black"/>
<path d="M91.9569 113.479C92.3859 114.066 92.1157 116.702 92.1157 116.702L90.9318 118.909C90.9318 118.909 91.0025 120.331 91.009 122.253L88.9822 122.966C88.8061 123.027 88.6194 123.041 88.4377 123.005C88.256 122.969 88.0846 122.884 87.9378 122.759C87.7909 122.633 87.6728 122.47 87.5934 122.282C87.5139 122.095 87.4753 121.889 87.4809 121.681L87.8262 109.181L92.4717 111.18C92.0749 111.489 92.5081 112.245 92.5081 112.245C92.5081 112.245 91.528 112.894 91.9569 113.479Z" fill="white"/>
<path d="M93.4947 107.539C93.4947 107.539 93.1794 109.806 92.3901 109.939C91.6009 110.072 91.247 113.607 90.4599 113.481C89.6728 113.356 90.1939 110.195 90.2218 109.582C90.2497 108.968 89.3639 106.428 90.0267 105.851C90.6894 105.274 92.7869 105.851 92.7869 105.851L93.4947 107.539Z" fill="#CF6F80"/>
<path opacity="0.1" d="M95.174 90.0789L96.6624 86.6985C96.6624 86.6985 97.2544 89.2749 97.2544 90.6512C97.2544 92.0275 98.0822 92.1627 98.0822 92.1627C98.0822 92.1627 98.9895 93.37 98.5112 94.2489C98.0329 95.1278 97.8399 97.3155 97.8399 97.3155C97.8399 97.3155 97.9965 101.49 97.2866 102.067C96.5767 102.644 96.4287 104.023 96.4287 104.023C96.4287 104.023 95.1247 106.643 95.1654 107.266C95.2062 107.889 93.351 112.107 93.351 112.107C93.351 112.107 94.2582 106.865 88.9715 104.6C88.9715 104.6 88.9308 102.821 89.3254 102.333C89.72 101.845 90.3355 101.623 89.9495 99.1578C89.5634 96.6925 89.838 93.7467 89.838 93.1551C89.838 92.5635 91.0219 88.874 91.0219 88.874L95.174 90.0789Z" fill="black"/>
<path d="M95.8175 86.2156L97.1172 86.6985C97.1172 86.6985 97.7113 89.2749 97.7113 90.6512C97.7113 92.0275 98.5391 92.1627 98.5391 92.1627C98.5391 92.1627 99.4463 93.37 98.9681 94.2489C98.4898 95.1278 98.2989 97.3155 98.2989 97.3155C98.2989 97.3155 98.4555 101.49 97.7456 102.067C97.0357 102.644 96.877 104.023 96.877 104.023C96.877 104.023 95.5751 106.643 95.6159 107.266C95.6566 107.889 93.7993 112.107 93.7993 112.107C93.7993 112.107 94.7087 106.865 89.4198 104.6C89.4198 104.6 89.3812 102.821 89.7758 102.333C90.1704 101.845 90.786 101.623 90.3999 99.1578C90.0139 96.6925 90.2884 93.7467 90.2884 93.1551C90.2884 92.5635 91.4723 88.874 91.4723 88.874L95.8175 86.2156Z" fill="white"/>
<path opacity="0.1" d="M67.1104 173.834C67.1104 173.834 69.1822 172.368 70.542 173.433C71.9017 174.498 67.1104 173.834 67.1104 173.834Z" fill="black"/>
<path opacity="0.1" d="M83.2086 169.302C83.2086 169.302 85.0424 169.036 86.5823 170.903C88.1222 172.769 83.2086 169.302 83.2086 169.302Z" fill="black"/>
<g opacity="0.1">
<path opacity="0.1" d="M85.8916 52.5295C85.6278 52.7855 85.289 52.969 85.1131 53.3094C84.963 53.6016 84.9587 53.9614 84.8386 54.2753C84.7185 54.5892 84.3689 54.8451 84.1265 54.6471C84.0708 52.474 83.1185 50.4336 81.9496 48.6951C81.6228 48.1705 81.2256 47.7062 80.7722 47.3188C80.3132 46.9303 79.7418 46.7486 79.1701 46.8093C78.5267 46.9083 77.9605 47.4009 77.3106 47.4613C76.4527 47.5434 75.6828 46.8745 74.8313 46.8407C74.4853 46.8446 74.144 46.9317 73.8304 47.0962C73.5167 47.2607 73.2379 47.4988 73.0126 47.7945C72.5649 48.389 72.2325 49.0823 72.0368 49.83C71.6997 50.9645 71.5161 52.1497 71.492 53.3456C71.4791 54.0193 71.4234 54.8596 70.87 55.1107C70.8829 55.2891 70.8829 55.4684 70.87 55.6468C71.4277 55.4053 71.4834 54.5554 71.4963 53.8793C71.5202 52.6833 71.7038 51.4981 72.041 50.3636C72.2368 49.6152 72.5692 48.9211 73.0169 48.3257C73.2426 48.0308 73.5216 47.7934 73.8352 47.6294C74.1488 47.4653 74.4898 47.3784 74.8356 47.3744C75.6935 47.4082 76.4656 48.0746 77.3149 47.9949C77.9583 47.9345 78.5288 47.4395 79.1744 47.343C79.7461 47.2822 80.3174 47.4639 80.7765 47.8524C81.2299 48.2398 81.6271 48.7041 81.9539 49.2288C83.1228 50.9649 84.0751 53.0004 84.1308 55.1783C84.3732 55.3787 84.7228 55.118 84.8429 54.8089C84.963 54.4998 84.9673 54.1376 85.1174 53.8431C85.2932 53.5026 85.6321 53.3215 85.8959 53.0656C86.5651 52.416 86.7324 51.3222 86.7066 50.3298C86.7066 50.2984 86.7066 50.267 86.7066 50.2381C86.6659 51.0977 86.4621 51.9742 85.8916 52.5295Z" fill="black"/>
<path opacity="0.1" d="M70.0593 52.3581C69.566 51.7472 68.8926 51.3391 68.4401 50.692C68.059 50.1192 67.8414 49.4296 67.816 48.7145C67.7485 49.6081 67.9701 50.4991 68.4401 51.2232C68.8926 51.8728 69.566 52.2808 70.0593 52.8917C70.5329 53.4893 70.8173 54.2467 70.8679 55.0455C70.9007 54.5594 70.846 54.0708 70.7071 53.609C70.5682 53.1472 70.3478 52.7217 70.0593 52.3581Z" fill="black"/>
<path opacity="0.1" d="M87.1248 45.0684C86.9983 45.66 86.7731 46.2226 86.6701 46.819C86.6092 47.2175 86.5869 47.6223 86.6036 48.0263C86.6108 47.7962 86.633 47.567 86.6701 47.3406C86.7731 46.7417 86.9983 46.1815 87.1248 45.59C87.1986 45.2637 87.2225 44.9257 87.1956 44.5903C87.1823 44.7514 87.1586 44.9112 87.1248 45.0684Z" fill="black"/>
</g>
<path opacity="0.1" d="M28.4668 183.652C40.0086 183.652 49.365 181.96 49.365 179.873C49.365 177.786 40.0086 176.094 28.4668 176.094C16.9251 176.094 7.56871 177.786 7.56871 179.873C7.56871 181.96 16.9251 183.652 28.4668 183.652Z" fill="#00BFA6"/>
<path d="M29.1403 107.483H27.7956V141.57H29.1403V107.483Z" fill="#535461"/>
<path d="M37.5905 141.466L37.5068 143.002L37.3867 145.175L37.3374 146.078L37.2194 148.251L37.168 149.154L37.0479 151.327L35.6924 175.973C35.6335 177.034 35.2179 178.029 34.5302 178.757C33.8425 179.484 32.9343 179.889 31.9906 179.89H24.9431C23.9996 179.889 23.0917 179.484 22.4043 178.756C21.717 178.029 21.3018 177.033 21.2434 175.973L19.8944 151.311L19.7743 149.137L19.725 148.234L19.6049 146.061L19.5556 145.158L19.4354 142.985L19.3497 141.449C19.3348 141.154 19.3737 140.858 19.464 140.58C19.5543 140.302 19.6941 140.048 19.8748 139.832C20.0556 139.617 20.2734 139.446 20.5151 139.329C20.7567 139.213 21.0169 139.153 21.2799 139.153H35.6946C35.9565 139.156 36.2152 139.219 36.4548 139.338C36.6943 139.458 36.9095 139.631 37.0872 139.848C37.2648 140.065 37.4011 140.32 37.4877 140.598C37.5743 140.877 37.6092 141.172 37.5905 141.466Z" fill="#3F3D56"/>
<path d="M37.5068 143.002L37.3867 145.168H19.547L19.4268 143.002H37.5068Z" fill="#9D9CB5"/>
<path d="M37.3374 146.071L37.2194 148.239H19.7164L19.5963 146.071H37.3374Z" fill="#9D9CB5"/>
<path d="M37.168 149.145L37.05 151.311H19.8859L19.7657 149.145H37.168Z" fill="#9D9CB5"/>
<path d="M17.3739 120.259C25.2043 126.638 28.4728 136.615 28.4728 136.615C28.4728 136.615 19.0361 136.251 11.2035 129.871C3.37104 123.492 0.108917 113.517 0.108917 113.517C0.108917 113.517 9.54139 113.88 17.3739 120.259Z" fill="#00BFA6"/>
<path d="M0.102509 113.517C0.102509 113.517 9.89959 119.638 13.0416 124.707C16.1836 129.775 28.4729 136.615 28.4729 136.615" stroke="#535461" stroke-width="2" stroke-miterlimit="10"/>
<path d="M22.4295 107.408C26.691 110.878 28.4733 116.309 28.4733 116.309C28.4733 116.309 23.3367 116.111 19.073 112.641C14.8093 109.171 13.0313 103.738 13.0313 103.738C13.0313 103.738 18.1658 103.936 22.4295 107.408Z" fill="#00BFA6"/>
<path d="M13.0313 103.738C13.0313 103.738 18.3631 107.07 20.0724 109.828C21.7818 112.585 28.4733 116.309 28.4733 116.309" stroke="#535461" stroke-width="2" stroke-miterlimit="10"/>
<path d="M34.6608 116.033C29.7644 122.092 28.7285 130.009 28.7285 130.009C28.7285 130.009 35.6323 128.101 40.5244 122.041C45.4165 115.98 46.4567 108.065 46.4567 108.065C46.4567 108.065 39.5572 109.975 34.6608 116.033Z" fill="#00BFA6"/>
<path d="M46.461 108.068C46.461 108.068 40.0826 114.278 38.4612 118.557C36.8398 122.835 28.7285 130.009 28.7285 130.009" stroke="#535461" stroke-width="2" stroke-miterlimit="10"/>
<path d="M214.401 113.901C214.401 113.901 210.86 94.0678 212.216 91.6C212.216 91.6 212.265 89.3062 212.183 86.3821C212.183 86.271 212.183 86.16 212.183 86.0465C212.422 86.2255 212.671 86.3868 212.928 86.5294C214.177 87.2518 215.61 87.4601 216.981 87.1186L215.909 85.7736C215.651 85.4525 215.383 85.1048 215.328 84.6798C215.272 84.2548 215.426 83.8758 215.559 83.4967C216.578 80.5992 216.632 76.9555 214.669 74.7438C213.011 72.8845 212.608 70.4844 210.809 68.787C209.494 67.5434 208.771 65.7204 208.089 63.9578C207.512 62.468 206.931 60.9661 206.601 59.3869C206.343 58.1531 206.24 56.8758 205.887 55.6709C205.533 54.466 204.87 53.2949 203.834 52.7565C203.465 52.5657 203.056 52.457 202.719 52.2035C202.277 51.8679 202.011 51.3222 201.691 50.8441C200.068 48.4295 194.631 49.8517 192.057 50.832C191.358 51.0789 190.71 51.4831 190.153 52.02L190.176 51.9765C190.196 51.9403 190.219 51.9041 190.241 51.8679C189.959 52.1243 189.716 52.4301 189.52 52.7734C189.145 53.4422 188.988 54.2221 188.675 54.9465C188.298 55.8037 186.198 58.1965 187.101 59.16C187.164 59.2247 187.237 59.2769 187.315 59.3145C187.654 59.4733 188.028 59.5153 188.388 59.4352L188.349 59.5391C188.041 60.3891 187.883 61.2987 187.884 62.2168C187.884 66.184 190.79 69.4003 194.378 69.4003C195.053 69.401 195.723 69.2845 196.366 69.055C196.381 69.1467 196.394 69.2385 196.409 69.3302C196.409 69.3665 196.42 69.4027 196.424 69.4389L196.31 69.6176C196.305 69.6066 196.298 69.5961 196.291 69.5862L192.924 74.8838C192.409 75.2919 189.445 77.7065 189.278 79.5174C189.102 81.4998 188.926 83.8202 188.926 83.8202L188.903 84.3176C188.755 84.4561 188.583 84.5569 188.398 84.6132C188.213 84.6695 188.019 84.6798 187.83 84.6436C186.779 84.4504 186.779 88.9899 186.779 88.9899C186.779 88.9899 186.08 89.7142 185.6 89.0865C185.119 88.4587 183.85 90.5859 183.85 90.5859L175.893 90.9723L175.71 90.9843L175.281 89.4897C175.235 89.332 175.136 89.2013 175.004 89.1258C174.873 89.0503 174.721 89.0361 174.58 89.0865C174.547 89.0988 174.515 89.1141 174.484 89.1323L174.454 89.1516L174.398 89.1951L174.37 89.2241C174.355 89.2398 174.34 89.2567 174.327 89.2748L174.301 89.3086L174.288 89.3231C174.239 89.4002 174.206 89.4893 174.193 89.5832C174.179 89.6771 174.186 89.7733 174.211 89.864L174.58 91.1461C173.044 91.4938 171.475 92.4741 172.755 95.1736L166.265 93.8239L168.365 95.8087L179.204 98.3271C179.06 98.6169 179.155 99.037 179.603 99.6286C181.533 102.181 185.051 102.874 186.466 103.052C186.84 103.994 187.307 104.885 187.858 105.709L187.736 108.251C187.736 108.251 184.152 127.631 183.496 128.613C183.827 128.191 184.13 127.741 184.403 127.268C183.363 131.25 181.909 136.7 181.527 137.516C180.913 138.82 180.345 144.096 181.044 144.434C181.259 144.538 181.872 144.487 182.747 144.412V144.849L182.709 161.411C182.709 161.411 182.884 171.569 182.402 172.537C181.919 173.506 181.791 175.536 181.791 175.536C181.791 175.536 179.86 179.542 178.331 181.153C178.321 181.165 178.309 181.176 178.297 181.186L178.25 180.81C178.25 180.81 176.412 183.422 172.345 183.275C172.345 183.275 169.898 185.067 173.527 185.163C177.156 185.26 181.791 185.018 181.791 185.018C181.791 185.018 185.027 179.465 187.738 180.189V184.398H188.568V180.122C188.953 179.836 189.282 179.466 189.536 179.033C189.79 178.6 189.964 178.114 190.046 177.603C190.117 177.077 190.065 176.539 189.895 176.042C189.725 175.545 189.443 175.107 189.076 174.771C188.912 174.603 188.78 174.399 188.688 174.172C188.597 173.944 188.549 173.697 188.546 173.448L188.516 173.477C188.516 173.392 188.497 173.305 188.489 173.216C188.251 171.043 187.952 166.559 189.005 163.241C190.449 158.692 190.886 152.356 189.835 148.584C189.496 147.379 189.218 146.153 189.001 144.912C188.975 144.755 188.952 144.605 188.93 144.465C189.649 144.575 190.36 144.736 191.06 144.948C193.494 145.704 198.82 145.844 203.366 145.803C203.377 145.943 203.39 146.09 203.405 146.238C203.486 147.261 203.656 148.274 203.911 149.261C204.482 151.192 204.743 159.709 204.743 159.709C204.743 159.709 205.479 166.711 205.078 169.56C204.864 171.144 204.649 172.735 204.527 174.334V174.365C204.527 174.365 203.321 178.228 202.44 180.327C202.419 180.38 202.395 180.433 202.373 180.484C202.138 180.508 201.907 180.565 201.685 180.655C201.685 180.655 200.503 183.311 199.326 183.751C198.148 184.19 198.539 185.636 201.205 185.105C203.87 184.574 207.896 184.139 207.896 184.139L208.07 181.43L208.889 180.276L208.675 182.978L209.548 182.785L209.432 179.499L210.772 177.61C210.772 177.61 212.391 175.988 209.985 172.796V172.866C209.959 172.82 209.936 172.771 209.908 172.726V172.711C209.509 172.016 209.192 170.719 209.773 168.418C210.824 164.26 211.435 160.486 211.435 160.486C211.435 160.486 213.781 150.376 210.961 145.593H211.085C210.796 144.92 210.592 144.205 210.478 143.468C210.464 143.381 210.451 143.292 210.44 143.2C212.527 143.065 214.575 142.64 216.246 141.722C216.239 141.713 215.233 117.721 214.401 113.901ZM187.907 97.1681V97.2164L187.478 97.2405L187.907 97.1681ZM186.436 97.3975C186.366 97.4151 186.3 97.4506 186.243 97.5013C186.059 97.7951 185.943 98.1364 185.906 98.4937L185.237 98.3247C185.237 98.3247 184.768 98.2112 184.092 98.0832L183.772 97.721C184.652 97.639 185.565 97.5182 186.436 97.3975Z" fill="url(#paint1_linear)"/>
<path d="M208.576 179.532L208.321 182.954L209.177 182.761L209.048 179.049L208.576 179.532Z" fill="#1D2366"/>
<path d="M189.053 163.287C188.021 166.595 188.313 171.06 188.544 173.228C188.63 174.029 188.71 174.517 188.71 174.517C188.71 174.517 187.167 178.472 187.039 178.622C186.91 178.772 182.501 181.802 182.501 181.802L179.419 183.828C179.419 183.828 176.292 182.285 177.791 181.754C178.097 181.615 178.373 181.404 178.599 181.133C180.101 179.528 181.986 175.536 181.986 175.536C181.986 175.536 182.115 173.51 182.586 172.547C183.058 171.583 182.887 161.459 182.887 161.459L182.923 144.955V142.804L188.789 142.852C188.826 143.583 188.91 144.309 189.042 145.025C189.252 146.262 189.525 147.484 189.859 148.686C190.893 152.45 190.464 158.755 189.053 163.287Z" fill="#FFB0B1"/>
<path opacity="0.1" d="M188.71 174.517C188.71 174.517 187.167 178.472 187.039 178.622C186.91 178.772 182.501 181.802 182.501 181.802L179.419 183.828C179.419 183.828 176.292 182.285 177.791 181.754C178.097 181.615 178.373 181.404 178.599 181.133L178.732 182.188L179.76 182.14L188.553 173.233C188.63 174.029 188.71 174.517 188.71 174.517Z" fill="black"/>
<path d="M188.602 173.457L179.76 182.425L178.732 182.473L178.518 180.783C178.518 180.783 176.721 183.386 172.727 183.241C172.727 183.241 170.329 185.026 173.883 185.122C177.437 185.219 181.975 184.977 181.975 184.977C181.975 184.977 185.145 179.424 187.798 180.148V184.342H188.613V180.109C188.992 179.822 189.315 179.452 189.564 179.02C189.812 178.589 189.98 178.105 190.059 177.598C190.129 177.076 190.079 176.543 189.914 176.049C189.748 175.555 189.472 175.117 189.113 174.778C188.952 174.609 188.824 174.404 188.736 174.177C188.649 173.95 188.603 173.705 188.602 173.457Z" fill="#1D2366"/>
<path d="M209.391 168.445C208.821 170.738 209.132 172.03 209.522 172.723V172.738C210.023 173.593 210.371 174.55 210.547 175.556L210.581 175.773L206.558 182.377L204.375 183.343C204.375 183.343 200.864 181.993 201.505 181.607C201.666 181.512 201.917 181.01 202.204 180.317C203.062 178.229 204.246 174.375 204.246 174.375V174.343C204.37 172.752 204.568 171.166 204.786 169.587C205.179 166.745 204.458 159.769 204.458 159.769C204.458 159.769 204.201 151.286 203.643 149.357C203.391 148.376 203.224 147.37 203.143 146.353C203.028 145.146 203.002 144.151 203.002 144.151C203.002 144.151 205.314 140.529 209.552 144.441C209.891 144.753 210.189 145.117 210.438 145.523C213.365 150.212 211.008 160.542 211.008 160.542C211.008 160.542 210.418 164.299 209.391 168.445Z" fill="#FFB0B1"/>
<path opacity="0.1" d="M210.588 175.773L206.564 182.377L204.381 183.343C204.381 183.343 200.87 181.993 201.511 181.607C201.672 181.512 201.923 181.01 202.211 180.317C203.697 180.303 204.467 181.896 204.467 181.896L206.35 181.558C206.35 181.558 208.833 176.063 209.391 175.727C209.949 175.391 209.477 173.218 209.477 173.218V172.665C209.492 172.685 209.505 172.706 209.522 172.726V172.74C210.023 173.596 210.371 174.553 210.547 175.558L210.588 175.773Z" fill="black"/>
<path d="M204.595 182.039C204.595 182.039 203.523 179.822 201.468 180.641C201.468 180.641 200.312 183.297 199.156 183.727C198 184.156 198.386 185.605 200.999 185.076C203.611 184.547 207.549 184.11 207.549 184.11L207.72 181.408L210.375 177.601C210.375 177.601 211.958 175.985 209.603 172.805V173.358C209.603 173.358 210.075 175.531 209.518 175.867C208.96 176.203 206.485 181.701 206.485 181.701L204.595 182.039Z" fill="#1D2366"/>
<path opacity="0.1" d="M188.795 142.847C188.832 143.578 188.917 144.304 189.048 145.021C186.633 144.622 184.392 144.82 182.923 144.951V142.799L188.795 142.847Z" fill="black"/>
<path opacity="0.1" d="M210.676 146.124C210.676 146.124 207.244 146.312 203.152 146.351C203.036 145.144 203.01 144.149 203.01 144.149C203.01 144.149 205.322 140.527 209.56 144.439C209.899 144.751 210.198 145.115 210.446 145.52C210.513 145.726 210.589 145.928 210.676 146.124Z" fill="black"/>
<path d="M210.676 145.689C210.676 145.689 195.646 146.508 191.064 145.062C186.483 143.615 181.943 144.868 181.259 144.533C180.575 144.197 181.13 138.941 181.731 137.639C182.331 136.338 185.625 123.176 185.625 123.176L188.795 104.569L192.135 103.533L192.371 103.458L198.189 101.652L202.453 100.326C202.453 100.326 210.931 137.591 210.204 140.339C209.94 141.391 209.897 142.498 210.08 143.572C210.191 144.305 210.391 145.018 210.676 145.689Z" fill="#1D2366"/>
<path d="M177.746 91.844C177.746 91.844 174.743 95.4659 177.017 97.4845C179.29 99.5031 180.785 97.6777 180.785 97.6777L177.746 91.844Z" fill="#C7DAF5"/>
<path opacity="0.1" d="M177.746 91.844C177.746 91.844 174.743 95.4659 177.017 97.4845C179.29 99.5031 180.785 97.6777 180.785 97.6777L177.746 91.844Z" fill="black"/>
<path d="M202.005 68.0312C202.005 68.0312 201.653 68.4079 201.123 68.9632C200.368 69.7576 199.251 70.9191 198.26 71.8921C196.887 73.2371 195.755 74.2246 196.16 73.382C196.566 72.5393 196.488 71.0712 196.287 69.6973C196.272 69.6055 196.259 69.5138 196.244 69.4244C196.077 68.4154 195.856 67.4188 195.581 66.44C195.581 66.44 197.799 63.2141 199.026 61.9416C199.482 61.4587 199.802 61.2607 199.821 61.5963C199.843 62.0478 200.143 63.0451 200.516 64.1027C200.527 64.1365 200.538 64.1679 200.55 64.2017C200.799 64.926 201.08 65.6697 201.327 66.312C201.704 67.2972 202.005 68.0312 202.005 68.0312Z" fill="#FFB0B1"/>
<path opacity="0.1" d="M200.551 64.2016C200.342 65.4636 199.836 66.6394 199.086 67.6061C198.336 68.5729 197.37 69.2951 196.287 69.6973C196.116 68.595 195.881 67.5068 195.581 66.44C195.581 66.44 199.757 60.3673 199.821 61.5963C199.836 62.0623 200.162 63.0957 200.551 64.2016Z" fill="black"/>
<path opacity="0.1" d="M195.871 71.3199L196.411 70.4627C196.411 70.4627 196.769 72.9208 198.086 71.8366C199.403 70.7525 199.467 79.9955 199.467 79.9955L198.054 103.787L187.841 103.098L188.13 91.6025L189.286 85.8075L192.145 77.3829L193.846 74.5989L195.871 71.3199Z" fill="black"/>
<path d="M199.467 80.1429L198.181 101.654L198.046 103.934L192.351 103.55L192.137 103.535L187.847 103.246L188.137 91.7474L189.293 85.9524L192.152 77.5278L193.853 74.7438L195.877 71.4527L196.418 70.598C196.418 70.598 196.776 73.056 198.093 71.9719L198.121 71.9501C199.407 71.0326 199.467 80.1429 199.467 80.1429Z" fill="#1D2366"/>
<path d="M189.437 83.9386C189.437 83.9386 188.924 85.1459 187.895 84.9503C186.865 84.7547 186.867 89.2966 186.867 89.2966C186.867 89.2966 186.183 90.021 185.711 89.3932C185.239 88.7654 183.995 90.8878 183.995 90.8878L176.202 91.2741C176.202 91.2741 179.67 93.0585 178.99 98.4576C178.99 98.4576 190.764 97.6366 191.15 96.3834C191.536 95.1302 189.437 83.9386 189.437 83.9386Z" fill="white"/>
<path opacity="0.03" d="M189.437 83.9386C189.437 83.9386 188.924 85.1459 187.895 84.9503C186.865 84.7547 186.867 89.2966 186.867 89.2966C186.867 89.2966 186.183 90.021 185.711 89.3932C185.239 88.7654 183.995 90.8878 183.995 90.8878L176.202 91.2741C176.202 91.2741 179.67 93.0585 178.99 98.4576C178.99 98.4576 190.764 97.6366 191.15 96.3834C191.536 95.1302 189.437 83.9386 189.437 83.9386Z" fill="black"/>
<path d="M166.786 94.1112L168.841 96.0863L185.754 100.087L183.657 97.6776L166.786 94.1112Z" fill="white"/>
<path d="M195.903 72.0805C195.622 72.5634 194.818 75.0359 194.146 77.1946C193.587 78.9934 193.119 80.575 193.119 80.575C193.119 80.575 192.027 88.577 191.47 90.0233C190.912 91.4697 191.214 97.1101 191.214 97.1101L189.136 111.04C189.136 111.04 188.195 118.223 186.741 122.514C185.306 126.737 183.708 128.717 183.659 128.78C184.302 127.8 187.809 108.497 187.809 108.497L188.967 84.1534C188.967 84.1534 189.136 81.8403 189.308 79.8627C189.479 77.8851 192.954 75.1856 192.954 75.1856L196.304 69.8228C196.641 70.3299 196.415 71.2136 195.903 72.0805Z" fill="white"/>
<path d="M187.167 103.366C187.167 103.366 182.235 103.125 179.845 99.8943C177.456 96.6635 185.368 98.6049 185.368 98.6049L187.425 99.1361L187.167 103.366Z" fill="#FFB0B1"/>
<path opacity="0.1" d="M210.204 140.341C209.94 141.393 209.897 142.5 210.079 143.574C204.698 144.004 198.942 142.367 198.942 142.367C197.87 143.478 195.045 145.115 195.045 145.115L193.505 123.625C192.521 120.727 192.135 105.547 192.135 105.547C192.135 105.547 192.223 104.752 192.349 103.562C192.349 103.533 192.349 103.502 192.36 103.473C192.744 100.148 193.505 93.906 193.878 93.0633C194.393 91.9043 192.295 88.8209 192.295 88.8209L193.25 79.6575L193.366 78.5516C195.377 77.5399 196.919 74.3092 196.919 74.3092L198.103 71.9742C199.39 71.0446 199.457 80.1549 199.457 80.1549L198.17 101.667L202.434 100.341C202.434 100.341 210.931 137.593 210.204 140.341Z" fill="black"/>
<path d="M215.727 141.826C209.861 145.105 199.199 142.068 199.199 142.068C198.127 143.178 195.302 144.815 195.302 144.815L193.76 123.325C192.778 120.428 192.392 105.247 192.392 105.247C192.392 105.247 193.632 93.9205 194.146 92.7639C194.297 92.4259 194.224 91.9236 194.046 91.3827C193.17 88.8084 192.849 86.0375 193.106 83.2963L193.518 79.3581L193.632 78.2546C195.646 77.2405 197.188 74.0097 197.188 74.0097L198.26 71.8946L200.233 67.9974L201.168 66.1526L201.327 66.3144L202.539 67.5507C202.539 67.5507 203.053 68.0336 203.825 68.758C205.505 70.3516 208.407 73.1574 209.904 74.8742C211.22 76.3857 211.637 82.2652 211.757 86.6912C211.836 89.6056 211.789 91.8898 211.789 91.8898C210.461 94.3503 213.934 114.104 213.934 114.104C214.742 117.922 215.727 141.826 215.727 141.826Z" fill="white"/>
<path opacity="0.03" d="M204.467 73.9614C204.467 73.9614 200.441 82.5888 200.909 85.8678C201.376 89.1468 202.706 92.858 202.065 93.7249C201.844 94.0533 201.56 94.3199 201.232 94.5038C200.905 94.6877 200.545 94.7839 200.179 94.7849C199.536 94.8332 197.82 96.1829 197.82 96.3278C197.82 96.4727 196.235 96.4727 194.818 97.1488C193.4 97.8249 191.307 98.2088 191.307 98.2088C191.307 98.2088 187.232 98.0639 186.852 98.4985C186.473 98.9332 186.082 101.534 186.895 103.608C187.708 105.682 188.611 107.23 189.293 107.512C189.975 107.795 194.303 106.162 197.814 105.776C201.325 105.39 205.136 102.258 205.136 102.258C205.136 102.258 209.333 100.568 210.069 97.7259C210.804 94.8839 209.17 79.2639 209.17 79.2639C209.17 79.2639 207.935 71.9839 204.467 73.9614Z" fill="black"/>
<path opacity="0.03" d="M203.952 73.2371C203.952 73.2371 199.926 81.8669 200.398 85.1435C200.87 88.4201 202.196 92.1337 201.552 93.003C201.333 93.3318 201.048 93.5986 200.721 93.7826C200.395 93.9665 200.034 94.0625 199.669 94.063C199.026 94.1113 197.31 95.461 197.31 95.6059C197.31 95.7508 195.725 95.7508 194.307 96.4245C192.89 97.0981 190.796 97.4845 190.796 97.4845C190.796 97.4845 186.721 97.3396 186.344 97.7742C185.966 98.2088 185.572 100.812 186.387 102.884C187.202 104.955 188.103 106.505 188.785 106.788C189.467 107.07 193.795 105.438 197.306 105.054C200.816 104.67 204.628 101.534 204.628 101.534C204.628 101.534 208.823 99.8435 209.55 97.004C210.277 94.1644 208.651 78.5396 208.651 78.5396C208.651 78.5396 207.42 71.262 203.952 73.2371Z" fill="black"/>
<path d="M204.34 73.5268C204.34 73.5268 200.315 82.1566 200.786 85.4332C201.258 88.7098 202.584 92.4234 201.942 93.2902C201.723 93.6198 201.438 93.8873 201.111 94.0717C200.784 94.2561 200.423 94.3523 200.057 94.3527C199.414 94.401 197.698 95.7507 197.698 95.8932C197.698 96.0356 196.115 96.0381 194.695 96.7141C193.276 97.3902 191.185 97.7742 191.185 97.7742C191.185 97.7742 187.11 97.6293 186.73 98.0639C186.35 98.4985 185.96 101.101 186.773 103.173C187.586 105.245 188.489 106.795 189.171 107.078C189.853 107.36 194.181 105.728 197.692 105.341C201.203 104.955 205.014 101.823 205.014 101.823C205.014 101.823 209.211 100.133 209.947 97.2912C210.682 94.4493 209.059 78.8292 209.059 78.8292C209.059 78.8292 207.806 71.5613 204.34 73.5268Z" fill="white"/>
<path opacity="0.1" d="M204.252 96.6732C204.252 96.6732 201.035 95.9488 202.155 97.1561C203.274 98.3634 203.268 99.421 204.638 99.3727C206.009 99.3244 204.252 96.6732 204.252 96.6732Z" fill="black"/>
<path opacity="0.1" d="M209.689 122.649C209.689 122.649 208.235 123.758 211.017 126.312C213.798 128.867 209.689 122.649 209.689 122.649Z" fill="black"/>
<path opacity="0.1" d="M206.914 131.76C206.914 131.905 206.399 137.072 208.325 138.364C210.251 139.655 206.914 131.76 206.914 131.76Z" fill="black"/>
<path d="M176.334 91.262C174.782 91.3223 171.427 91.856 173.167 95.5092C174.705 98.7424 177.289 96.5813 178.743 94.9418C178.388 93.4132 177.526 92.0961 176.334 91.262Z" fill="#FFB0B1"/>
<path d="M178.762 94.9141L178.826 94.838L178.762 94.9141Z" fill="#FFB0B1"/>
<path opacity="0.1" d="M203.826 68.9053C202.178 70.1729 200.797 71.2426 200.527 71.4648C199.789 72.0805 198.382 75.6951 197.475 77.5399C196.752 79.0249 194.404 79.4064 193.518 79.5005L193.632 78.3971C195.646 77.3829 197.188 74.1522 197.188 74.1522L201.168 66.2951L202.539 67.698C202.539 67.698 203.053 68.1809 203.826 68.9053Z" fill="black"/>
<path d="M203.826 68.7604C202.178 70.028 200.797 71.0977 200.527 71.3223C199.789 71.9356 198.382 75.5502 197.475 77.395C196.752 78.88 194.404 79.2615 193.518 79.3556L193.632 78.2522C195.646 77.238 197.188 74.0073 197.188 74.0073L201.168 66.1502L202.539 67.5483C202.539 67.5483 203.053 68.0263 203.826 68.7604Z" fill="#DCE7FF"/>
<path d="M200.656 62.608C200.657 64.0575 200.266 65.473 199.536 66.667C198.674 68.0786 197.391 69.0956 195.92 69.5333C194.448 69.971 192.887 69.8004 191.518 69.0526C190.149 68.3048 189.063 67.0292 188.458 65.4574C187.853 63.8855 187.768 62.1215 188.219 60.4854C188.671 58.8493 189.628 57.4495 190.917 56.5401C192.207 55.6306 193.743 55.2717 195.248 55.5285C196.752 55.7853 198.125 56.6407 199.117 57.9396C200.11 59.2386 200.655 60.8949 200.656 62.608Z" fill="#FFB0B1"/>
<path opacity="0.1" d="M211.757 86.6936C210.886 86.0904 210.176 85.2326 209.704 84.2114C209.346 83.4146 209.108 82.4947 208.497 81.9296C207.945 81.4226 207.21 81.2994 206.524 81.0725C204.267 80.3215 202.376 78.0035 202.305 75.3571C202.271 74.1112 202.616 72.8677 202.459 71.6338C202.37 70.9355 202.124 70.2746 201.743 69.7142C201.554 69.4462 201.347 69.1951 201.123 68.9633C200.823 68.6445 200.508 68.3355 200.233 67.9974C200.06 67.7881 199.909 67.5572 199.783 67.3093C199.681 67.1064 199.598 66.8919 199.536 66.6694C199.107 65.1917 199.497 63.4387 199.026 61.944L199 61.8619C198.822 61.3307 198.459 60.7995 197.955 60.7585C197.451 60.7174 197.02 61.1883 196.54 61.3983C195.534 61.8378 194.449 61.0893 193.61 60.3263C192.772 59.5632 191.826 58.6916 190.76 58.8606C190.054 58.9741 189.497 59.515 188.847 59.795C188.7 59.859 188.549 59.9083 188.394 59.9423C188.944 58.3982 189.955 57.1179 191.252 56.3215C192.549 55.525 194.052 55.262 195.503 55.5777C196.954 55.8934 198.262 56.7681 199.202 58.0515C200.142 59.3349 200.656 60.9468 200.656 62.6105C200.656 63.1128 200.61 63.6139 200.516 64.1051C200.527 64.1389 200.538 64.1703 200.551 64.2041C200.799 64.9285 201.08 65.6722 201.327 66.3145L202.539 67.5507C202.539 67.5507 203.053 68.0337 203.825 68.758C205.505 70.3517 208.407 73.1574 209.904 74.8742C211.22 76.3906 211.632 82.2677 211.757 86.6936Z" fill="black"/>
<path d="M188.772 55.3836C189.078 54.6809 189.231 53.8938 189.597 53.2273C190.136 52.2615 191.075 51.6433 192.04 51.2691C194.56 50.2912 199.886 48.8714 201.477 51.2691C201.79 51.752 202.05 52.288 202.483 52.6213C202.813 52.8748 203.212 52.9834 203.575 53.1742C204.589 53.7102 205.237 54.8789 205.582 56.0717C205.927 57.2645 206.03 58.5443 206.283 59.7733C206.607 61.35 207.176 62.8446 207.742 64.3296C208.409 66.0826 209.117 67.9008 210.403 69.1395C212.16 70.8297 212.548 73.2226 214.178 75.077C216.108 77.2791 216.046 80.9131 215.051 83.7985C214.92 84.1776 214.772 84.5736 214.824 84.9768C214.875 85.3801 215.141 85.7471 215.392 86.0682L216.447 87.4083C213.951 88.0868 211.126 86.6187 209.964 84.0424C209.605 83.2456 209.367 82.328 208.754 81.7606C208.205 81.2535 207.467 81.1328 206.783 80.9058C204.527 80.1525 202.635 77.832 202.564 75.1856C202.53 73.9421 202.875 72.6986 202.719 71.4672C202.632 70.7642 202.384 70.0986 202 69.5355C201.411 68.6686 200.52 68.0867 200.04 67.1209C199.227 65.5055 199.845 63.4072 199.259 61.6736C199.079 61.1424 198.719 60.6112 198.215 60.5701C197.711 60.5291 197.28 60.9999 196.797 61.21C195.794 61.6494 194.708 60.9033 193.87 60.1379C193.031 59.3725 192.085 58.5032 191.017 58.6746C190.312 58.7857 189.756 59.3266 189.106 59.6091C188.626 59.8167 187.652 60.0027 187.232 59.5463C186.344 58.6264 188.401 56.2432 188.772 55.3836Z" fill="#591D4B"/>
<path opacity="0.1" d="M210.56 83.2456C210.2 82.4487 209.964 81.5312 209.35 80.9662C208.801 80.4591 208.063 80.336 207.377 80.109C205.123 79.358 203.231 77.0376 203.158 74.3912C203.124 73.1477 203.469 71.9018 203.315 70.6703C203.225 69.9719 202.978 69.311 202.597 68.7507C202.005 67.8839 201.115 67.302 200.636 66.3361C199.823 64.7232 200.441 62.6249 199.853 60.8888C199.675 60.36 199.313 59.8288 198.811 59.7854C198.309 59.7419 197.874 60.2176 197.393 60.4276C196.39 60.8671 195.302 60.1186 194.466 59.3556C193.629 58.5925 192.679 57.7209 191.613 57.8899C190.908 58.0034 190.35 58.5442 189.702 58.8243C189.222 59.032 188.246 59.2203 187.826 58.764C186.942 57.7981 188.999 55.4198 189.368 54.565C189.675 53.8599 189.827 53.0752 190.196 52.4088C190.215 52.3725 190.237 52.3363 190.258 52.3001C189.982 52.5575 189.744 52.8622 189.552 53.2032C189.186 53.8696 189.033 54.6519 188.727 55.3594C188.356 56.2142 186.299 58.5998 187.185 59.5584C187.614 60.0172 188.579 59.8288 189.059 59.6212C189.702 59.3386 190.264 58.7978 190.97 58.6867C192.042 58.5153 192.986 59.3869 193.822 60.15C194.659 60.913 195.753 61.6615 196.752 61.222C197.233 61.012 197.653 60.5387 198.168 60.5822C198.682 60.6256 199.026 61.1544 199.212 61.6856C199.798 63.4193 199.18 65.5176 199.993 67.133C200.473 68.0819 201.363 68.6759 201.953 69.5476C202.337 70.1107 202.584 70.7762 202.672 71.4792C202.828 72.7107 202.483 73.9542 202.517 75.1977C202.588 77.8538 204.48 80.1645 206.736 80.9179C207.416 81.1448 208.158 81.2656 208.707 81.7726C209.322 82.3401 209.565 83.2576 209.916 84.0544C211.079 86.6308 213.903 88.0989 216.4 87.4204L215.902 86.7878C213.738 86.824 211.549 85.438 210.56 83.2456Z" fill="black"/>
<path opacity="0.1" d="M195.774 72.2254C195.493 72.7083 194.689 75.1809 194.018 77.3395C193.389 77.0642 192.819 75.3088 192.819 75.3088L196.169 69.9436C196.512 70.4748 196.287 71.3561 195.774 72.2254Z" fill="black"/>
<path d="M195.903 72.0805C195.622 72.5634 194.818 75.0359 194.146 77.1946C193.518 76.9217 192.947 75.1639 192.947 75.1639L196.297 69.8011C196.641 70.3299 196.415 71.2136 195.903 72.0805Z" fill="#DCE7FF"/>
<path d="M176.425 96.748L174.567 90.1538C174.545 90.0766 174.537 89.9952 174.543 89.9144C174.549 89.8336 174.569 89.755 174.602 89.683C174.635 89.6109 174.681 89.547 174.736 89.4948C174.791 89.4426 174.855 89.4031 174.923 89.3787C175.061 89.3301 175.211 89.3449 175.34 89.42C175.468 89.4951 175.565 89.6243 175.61 89.7795L177.467 96.3665L177.282 97.7453L176.425 96.748Z" fill="#BE8B87"/>
<path opacity="0.1" d="M174.743 89.5742C174.882 89.5249 175.032 89.5394 175.161 89.6145C175.29 89.6897 175.387 89.8193 175.432 89.9751L177.289 96.5621L177.149 97.5955L177.285 97.7549L177.469 96.3762L175.601 89.7891C175.557 89.6339 175.46 89.5047 175.331 89.4297C175.203 89.3546 175.053 89.3397 174.915 89.3883C174.798 89.4308 174.698 89.5158 174.629 89.6298C174.666 89.6077 174.704 89.5892 174.743 89.5742Z" fill="white"/>
<path d="M176.425 96.7481L177.467 96.3762L177.315 97.5062L177.282 97.7549L176.978 97.3976L176.425 96.7481Z" fill="#EFC8C4"/>
<path d="M176.978 97.3976C176.996 97.3718 177.019 97.3504 177.044 97.3348C177.059 97.324 177.077 97.3184 177.095 97.3184C177.113 97.3184 177.13 97.324 177.145 97.3348C177.16 97.3547 177.172 97.3766 177.182 97.4C177.196 97.4266 177.215 97.4493 177.238 97.4665C177.261 97.4836 177.287 97.4947 177.315 97.499L177.282 97.7404L176.978 97.3976Z" fill="#727A9C"/>
<path d="M174.557 92.4959C174.557 92.4959 178.282 92.4717 177.405 94.2561C176.527 96.0405 175.157 96.2554 175.157 96.2554L174.557 92.4959Z" fill="#FFB0B1"/>
<path d="M151.387 12.4158H151.226C144.826 12.4158 139.167 16.2285 135.911 21.8545C132.655 16.2285 126.995 12.4158 120.595 12.4158H120.435C115.632 12.4674 111.041 14.6508 107.66 18.4916C104.279 22.3324 102.381 27.5203 102.378 32.9278C102.378 39.6428 104.99 49.1708 110.084 57.011C119.789 71.9501 135.911 85.0203 135.911 85.0203C135.911 85.0203 152.033 71.9525 161.735 57.011C166.831 49.1708 169.441 39.6428 169.441 32.9278C169.439 27.5207 167.541 22.3332 164.16 18.4925C160.78 14.6517 156.19 12.468 151.387 12.4158ZM149.086 58.1603C148.357 58.1572 147.646 57.906 147.046 57.4398C146.446 56.9735 145.986 56.314 145.725 55.5477H141.899C141.647 55.546 141.402 55.4557 141.198 55.2894C140.993 55.1232 140.84 54.8894 140.76 54.6205L139.585 50.634L135.866 65.2641C135.793 65.5457 135.642 65.7933 135.434 65.9696C135.226 66.1459 134.972 66.2415 134.712 66.242H134.637C134.365 66.2272 134.106 66.1079 133.903 65.9039C133.7 65.7 133.565 65.4239 133.522 65.1216L129.689 39.1695L126.888 54.5264C126.824 54.8181 126.675 55.0772 126.464 55.2623C126.254 55.4474 125.995 55.5479 125.728 55.5477H120.338C120.176 55.5554 120.015 55.5262 119.864 55.4619C119.713 55.3976 119.574 55.2996 119.458 55.1736C119.341 55.0476 119.248 54.8963 119.185 54.7289C119.121 54.5614 119.088 54.3812 119.088 54.1992C119.088 54.0171 119.121 53.8369 119.185 53.6695C119.248 53.502 119.341 53.3508 119.458 53.2248C119.574 53.0988 119.713 53.0007 119.864 52.9364C120.015 52.8721 120.176 52.8429 120.338 52.8506H124.784L128.752 32.2034C128.817 31.8982 128.974 31.6279 129.197 31.4387C129.419 31.2495 129.693 31.1533 129.972 31.1664C130.251 31.1795 130.516 31.3012 130.724 31.5106C130.932 31.72 131.069 32.0042 131.111 32.3145L135.025 58.7881L138.358 45.6986C138.427 45.4229 138.574 45.1799 138.776 45.0058C138.978 44.8318 139.225 44.736 139.48 44.7328H139.503C139.755 44.7328 140.001 44.8225 140.205 44.989C140.409 45.1555 140.561 45.3903 140.64 45.66L142.765 52.8579H145.678C145.885 52.1496 146.262 51.5195 146.767 51.0371C147.272 50.5547 147.886 50.2388 148.54 50.1243C149.195 50.0097 149.864 50.101 150.476 50.388C151.087 50.675 151.616 51.1466 152.004 51.7507C152.393 52.3548 152.625 53.0679 152.676 53.8114C152.727 54.5548 152.595 55.2997 152.293 55.9638C151.992 56.6278 151.534 57.1853 150.969 57.5746C150.404 57.9639 149.755 58.17 149.092 58.17L149.086 58.1603Z" fill="#00BFA6"/>
</g>
<defs>
<linearGradient id="paint0_linear" x1="76.4228" y1="187.1" x2="76.4228" y2="38.52" gradientUnits="userSpaceOnUse">
<stop stop-color="#808080" stop-opacity="0.25"/>
<stop offset="0.54" stop-color="#808080" stop-opacity="0.12"/>
<stop offset="1" stop-color="#808080" stop-opacity="0.1"/>
</linearGradient>
<linearGradient id="paint1_linear" x1="47873.4" y1="112105" x2="47873.4" y2="35838.1" gradientUnits="userSpaceOnUse">
<stop stop-color="#808080" stop-opacity="0.25"/>
<stop offset="0.54" stop-color="#808080" stop-opacity="0.12"/>
<stop offset="1" stop-color="#808080" stop-opacity="0.1"/>
</linearGradient>
<clipPath id="clip0">
<rect width="237" height="189" fill="white"/>
</clipPath>
</defs>
</svg>
